<svg xmlns="http://www.w3.org/2000/svg" viewBox="0 0 317.82 363.2"><defs><style>.cls-1{fill:#2b68b3;fill-rule:evenodd;}.cls-2{fill:#0faa6d;}</style></defs><g id="Layer_2" data-name="Layer 2"><g id="Layer_1-2" data-name="Layer 1"><path class="cls-1" d="M302.47,147.69c-.09-.17-2.56-30.33-2.56-30.41C298,129.43,289.1,153,285.15,161.6c-19.87,43.11-50.23,78.4-88.26,106.66a247.2,247.2,0,0,1-36.9,22.8l-3.19,1.6A40.6,40.6,0,0,1,142.53,307c-1.05,11.42-5.44,22.76-11.06,32.73a77.3,77.3,0,0,1-11.34,15.83,156,156,0,0,0,48.26,7.68c41.65.36,77-13.82,106.42-43.28s43.53-64.57,43-106.08Q317.35,177.59,302.47,147.69Zm-122,193.85c43.24-8.94,88.78-37.58,114.66-113.73C283.47,294.92,248.68,335.19,180.5,341.54Z"/><path class="cls-1" d="M270.86,108a82.61,82.61,0,0,0-6.49-9.32L165.67,0,60.29,105.39C30.8,134.88,16.71,170.25,17.15,211.93a167.63,167.63,0,0,0,2.49,27.44c7.61,11.3,31.15,13.78,43.62,14.66a108.38,108.38,0,0,1-6.66-40.61C57.22,183,68.42,156.61,90,135.06l5.22-5.22,34.51-34.5h0l18.8-18.81h0l.58-.58,19.77-19.76,77.87,77.86a116.94,116.94,0,0,1,14.33,17.33C270.59,135.6,277.1,118.73,270.86,108Z"/><path class="cls-2" d="M78.85,263C26.6,261.5,3.72,252.85,8,215.67-13.39,254.9,10.62,281.51,51.15,286c-15-1.22-28.81-2.45-48.73-20.44C13.56,307.15,38,324.1,80.83,306c-14.55,6.66-27.89,12.63-57.49,4.73,6.12,17.19,32.22,35.82,57.46,23.9C72,340.34,64.35,340.25,51,342.2c17.92,14.86,40.3,24.39,59.41-1.11-6.27,9.56-9.24,12.25-24.65,19.11,13.82.39,25.94-2.38,38.46-24.59,9.87-17.49,14.27-36.71,5.59-52.28C120.58,267.86,101.57,263.67,78.85,263Zm-13.12,8.26c17.11-.7,25.68-.68,40.21,7.22C93.91,273,78.47,270.81,65.73,271.27Z"/><path class="cls-2" d="M272.24,15.29c-48.61,43.55-10.13,61.25,5.78,88.55,18.38,31.54-40,98.25-80.94,128.63a263.82,263.82,0,0,1-51.12,30c6.78,3.18,11.54,9,10.32,21.18a239.9,239.9,0,0,0,35.66-22q57.75-42.92,85.68-103.48a205.16,205.16,0,0,0,14.17-40.37c8-33.09,7.36-67.09-8.9-81.7,23.14,16.29,17.73,61,14.72,74.72C347,65.71,290.51,34.33,272.24,15.29Z"/><path class="cls-2" d="M119.65,267.83c6.18,3.5,11.17,7.75,14.08,13.25,3.31,5.28,4.49,11.72,4.44,18.82C166,283.23,148,252.09,119.65,267.83Z"/></g></g></svg>