<svg width="20" height="20" viewBox="0 0 20 20" fill="none" xmlns="http://www.w3.org/2000/svg">
<path d="M11.1783 2.34003L17.66 8.82169C17.8148 8.97647 17.9376 9.16023 18.0214 9.36248C18.1052 9.56474 18.1483 9.78152 18.1483 10.0004C18.1483 10.2194 18.1052 10.4362 18.0214 10.6384C17.9376 10.8407 17.8148 11.0244 17.66 11.1792L11.1783 17.6609C10.8657 17.9733 10.4419 18.1488 9.99996 18.1488C9.55802 18.1488 9.13417 17.9733 8.82162 17.6609L2.33996 11.1792C2.18512 11.0244 2.06229 10.8407 1.97849 10.6384C1.89469 10.4362 1.85156 10.2194 1.85156 10.0004C1.85156 9.78152 1.89469 9.56474 1.97849 9.36248C2.06229 9.16023 2.18512 8.97647 2.33996 8.82169L8.82162 2.34003C9.13417 2.02758 9.55802 1.85205 9.99996 1.85205C10.4419 1.85205 10.8657 2.02758 11.1783 2.34003ZM9.99996 3.51836L3.51829 10L9.99996 16.4834L16.4816 10L9.99996 3.51836ZM10.0016 12.5C10.214 12.5003 10.4183 12.5816 10.5728 12.7274C10.7272 12.8732 10.8202 13.0725 10.8326 13.2845C10.845 13.4966 10.7761 13.7053 10.6397 13.8682C10.5034 14.0311 10.31 14.1358 10.0991 14.1609L10.0016 14.1667C9.78908 14.1669 9.5845 14.0859 9.42973 13.9402C9.27496 13.7945 9.1817 13.5952 9.16903 13.383C9.15636 13.1709 9.22524 12.9619 9.36158 12.7988C9.49791 12.6358 9.6914 12.531 9.90246 12.5059L10.0016 12.5ZM9.99996 6.66669C10.7225 6.66669 11.2816 7.30003 11.1916 8.01669L10.8266 10.9367C10.801 11.1379 10.7029 11.3228 10.5508 11.4568C10.3986 11.5909 10.2028 11.6648 9.99996 11.6648C9.79716 11.6648 9.60133 11.5909 9.44915 11.4568C9.29697 11.3228 9.19889 11.1379 9.17329 10.9367L8.80829 8.01669C8.78713 7.84771 8.80217 7.67616 8.85238 7.51344C8.9026 7.35071 8.98685 7.20052 9.09955 7.07285C9.21225 6.94517 9.35082 6.84293 9.50606 6.7729C9.6613 6.70288 9.82966 6.66668 9.99996 6.66669Z" fill="#0066CC"/>
</svg>
