<svg width="16" height="16" viewBox="0 0 16 16" fill="none" xmlns="http://www.w3.org/2000/svg">
<path d="M12.9971 4.86565C12.8533 4.7469 12.7002 4.64065 12.5377 4.54065L9.2502 2.54065H7.43145L7.38457 2.56877C6.70645 2.9969 6.29395 3.74377 6.29395 4.55002V13.9156C6.29395 14.0188 6.30957 14.1156 6.34082 14.2063C6.4627 14.5656 6.80332 14.825 7.20332 14.825H13.5721C14.0189 14.825 14.3877 14.5031 14.4658 14.0813C14.4752 14.0281 14.4814 13.9719 14.4814 13.9156V8.00002C14.4846 6.77502 13.9314 5.62815 12.9971 4.86565ZM10.1627 5.5219C10.1627 5.13127 10.4783 4.81565 10.8689 4.81877C11.0033 4.81877 11.1346 4.85627 11.2471 4.92815L12.0408 5.4344C12.9971 6.04377 13.5752 7.0969 13.5752 8.23127V9.59377H12.6658C12.3752 9.59377 12.0939 9.47815 11.8877 9.2719L10.4846 7.86877C10.2783 7.66252 10.1627 7.3844 10.1627 7.09065V5.5219Z" fill="#3184D6"/>
<path d="M12.9971 4.86565C12.8533 4.7469 12.7002 4.64065 12.5377 4.54065L9.2502 2.54065H7.43145L7.38457 2.56877C6.70645 2.9969 6.29395 3.74377 6.29395 4.55002V13.9157C6.29395 14.0188 6.30957 14.1157 6.34082 14.2063C6.43145 14.2375 6.53145 14.2531 6.63145 14.2531H13.0002C13.3814 14.2531 13.7064 14.0188 13.8439 13.6875C13.8658 13.6313 13.8846 13.5719 13.8971 13.5094C13.9064 13.4563 13.9127 13.4 13.9127 13.3438V7.42815C13.9127 6.48127 13.5814 5.57815 12.9971 4.86565ZM10.1627 5.5219C10.1627 5.13127 10.4783 4.81565 10.8689 4.81877C11.0033 4.81877 11.1346 4.85627 11.2471 4.92815L12.0408 5.4344C12.9971 6.04377 13.5752 7.0969 13.5752 8.23127V9.59378H12.6658C12.3752 9.59378 12.0939 9.47815 11.8877 9.2719L10.4846 7.86877C10.2783 7.66253 10.1627 7.3844 10.1627 7.09065V5.5219Z" fill="#ACCEF0"/>
<path d="M14.4844 10.5032V13.6875H13.8438C13.8656 13.6313 13.8844 13.5719 13.8969 13.5094C13.9063 13.4563 13.9125 13.4 13.9125 13.3438V10.5032H14.4844Z" fill="#0052A3"/>
<path d="M13.9127 10.5032V13.3438C13.9127 13.4 13.9064 13.4563 13.8971 13.5094C13.8846 13.5719 13.8689 13.6313 13.8439 13.6875H6.29395V10.5032H13.9127Z" fill="#0066CC"/>
<path d="M3.10938 6.86255H5.38437V7.77192H3.10938V6.86255Z" fill="#3184D6"/>
<path d="M5.1375 6.86255C5.1375 7.22817 4.84062 7.52505 4.475 7.52505H3.10938V6.86255H5.1375Z" fill="#ACCEF0"/>
<path d="M6.29375 5.725L4.92813 6.18125V6.8625H3.56563L3.42813 6.54688L2.88125 5.26875H1.51562V4.35938H4.475L5.90625 5.43437L6.29375 5.725Z" fill="#00A86B"/>
<path d="M5.90625 5.43437L4.88438 5.775C4.72188 5.82813 4.6125 5.98125 4.6125 6.15C4.6125 6.36875 4.43437 6.54688 4.21562 6.54688H3.42812L2.88125 5.26875H1.51562V4.35938H4.47188L5.90625 5.43437Z" fill="#2AB985"/>
<path d="M2.42773 11.4126H6.29336V13.9157H2.42773V11.4126Z" fill="#3184D6"/>
<path d="M5.86211 11.4126V12.8095C5.86211 13.1813 5.56211 13.4813 5.19023 13.4813H2.42773V11.4126H5.86211Z" fill="#ACCEF0"/>
<path d="M6.29414 11.0688V11.4126H3.38477C3.42227 11.2845 3.48164 11.1657 3.55664 11.0595C3.61602 10.9782 3.68477 10.9063 3.76289 10.8438C4.16914 10.5188 4.27539 9.94072 4.00664 9.49385C3.86914 9.26572 3.82539 8.99072 3.88164 8.73135C3.95039 8.41572 3.99414 8.09385 4.00977 7.77197H4.92852C5.80352 8.64697 6.29414 9.83135 6.29414 11.0688Z" fill="#0066CC"/>
<path d="M5.94102 10.7157C5.94102 10.9063 5.78789 11.0595 5.59727 11.0595H3.55664C3.61602 10.9782 3.68477 10.9063 3.76289 10.8438C4.16914 10.5188 4.27539 9.94072 4.00664 9.49385C3.86914 9.26572 3.82539 8.99072 3.88164 8.73135C3.95039 8.41572 3.99414 8.09385 4.00977 7.77197H4.89414C5.56914 8.6001 5.94102 9.6376 5.94102 10.7157Z" fill="#0052A3"/>
<path d="M9.25039 5.4969C9.25039 6.25002 8.84414 6.86252 8.34102 6.86252C8.08164 6.86252 7.84727 6.70002 7.68164 6.43752C7.52852 6.19377 7.43164 5.86252 7.43164 5.50002C7.43164 4.7469 7.83789 4.1344 8.34102 4.1344C8.45352 4.1344 8.56289 4.16565 8.66289 4.2219C9.00664 4.41565 9.25039 4.91565 9.25039 5.4969Z" fill="#0066CC"/>
<path d="M8.91289 5.1594C8.91289 5.91252 8.50664 6.52502 8.00352 6.52502C7.89102 6.52502 7.78164 6.49377 7.68164 6.43752C7.52852 6.19377 7.43164 5.86252 7.43164 5.50002C7.43164 4.7469 7.83789 4.1344 8.34102 4.1344C8.45352 4.1344 8.56289 4.16565 8.66289 4.2219C8.81914 4.46565 8.91289 4.7969 8.91289 5.1594Z" fill="#0052A3"/>
<path d="M7.43164 1.17505H9.25039V2.54067H7.43164V1.17505Z" fill="#00A86B"/>
<path d="M8.90352 1.17505V1.58442C8.90352 1.9188 8.63164 2.1938 8.29414 2.1938H7.43164V1.17505H8.90352Z" fill="#2AB985"/>
</svg>
