<svg width="40" height="40" viewBox="0 0 40 40" fill="none" xmlns="http://www.w3.org/2000/svg">
<rect width="40" height="40" rx="20" fill="#0066CC"/>
<g clip-path="url(#clip0_209_5772)">
<path d="M20.7501 28.2401C24.7592 27.6367 27.8334 24.1776 27.8334 20.0001C27.8334 15.3976 24.1026 11.6667 19.5001 11.6667C14.8976 11.6667 11.1667 15.3976 11.1667 20.0001C11.1667 24.1776 14.2409 27.6376 18.2501 28.2401V22.5001H17.0001C16.6686 22.5001 16.3506 22.3684 16.1162 22.134C15.8818 21.8995 15.7501 21.5816 15.7501 21.2501C15.7501 20.9186 15.8818 20.6006 16.1162 20.3662C16.3506 20.1318 16.6686 20.0001 17.0001 20.0001H18.2501V18.3334C18.2501 17.5599 18.5574 16.818 19.1044 16.271C19.6513 15.724 20.3932 15.4167 21.1667 15.4167H21.5834C21.9149 15.4167 22.2329 15.5484 22.4673 15.7829C22.7017 16.0173 22.8334 16.3352 22.8334 16.6667C22.8334 16.9983 22.7017 17.3162 22.4673 17.5506C22.2329 17.7851 21.9149 17.9167 21.5834 17.9167H21.1667C21.0562 17.9167 20.9503 17.9606 20.8721 18.0388C20.794 18.1169 20.7501 18.2229 20.7501 18.3334V20.0001H22.0001C22.3316 20.0001 22.6495 20.1318 22.884 20.3662C23.1184 20.6006 23.2501 20.9186 23.2501 21.2501C23.2501 21.5816 23.1184 21.8995 22.884 22.134C22.6495 22.3684 22.3316 22.5001 22.0001 22.5001H20.7501V28.2401Z" fill="white"/>
</g>
<defs>
<clipPath id="clip0_209_5772">
<rect width="20" height="20" fill="white" transform="translate(9.5 10)"/>
</clipPath>
</defs>
</svg>
