<svg width="56" height="56" viewBox="0 0 56 56" fill="none" xmlns="http://www.w3.org/2000/svg">
<rect width="56" height="56" rx="12" fill="#0066CC"/>
<path fill-rule="evenodd" clip-rule="evenodd" d="M28.0001 18.6666V19.5333C25.5601 20.0266 23.4467 21.4133 22.0001 23.3333H18.6667C18.3001 23.3333 18.0001 23.6333 18.0001 24C18.0001 24.3666 18.3001 24.6666 18.6667 24.6666H21.1534C20.9267 25.0933 20.7334 25.54 20.5667 26H17.3334C16.9667 26 16.6667 26.3 16.6667 26.6666C16.6667 27.0333 16.9667 27.3333 17.3334 27.3333H20.2001C20.1134 27.7666 20.0534 28.2133 20.0201 28.6666H15.3334C14.9667 28.6666 14.6667 28.9666 14.6667 29.3333C14.6667 29.7 14.9667 30 15.3334 30H20.0201C20.0534 30.4533 20.1134 30.9 20.2001 31.3333H17.3334C16.9667 31.3333 16.6667 31.6333 16.6667 32C16.6667 32.3666 16.9667 32.6666 17.3334 32.6666H20.5667C20.7334 33.1266 20.9267 33.5733 21.1534 34H18.6667C18.3001 34 18.0001 34.3 18.0001 34.6666C18.0001 35.0333 18.3001 35.3333 18.6667 35.3333H22.0001C23.8267 37.76 26.7267 39.3333 30.0001 39.3333C30.9067 39.3333 31.7801 39.2133 32.6201 38.9866C33.0289 39.6988 33.6182 40.2907 34.3287 40.7027C35.0391 41.1147 35.8455 41.3322 36.6667 41.3333C39.2401 41.3333 41.3334 39.24 41.3334 36.6666C41.3334 35.0933 40.5534 33.7 39.3601 32.8533C39.7734 31.76 40.0001 30.5733 40.0001 29.3333C40.0001 24.5 36.5601 20.46 32.0001 19.5333V18.6666H32.6667C33.7734 18.6666 34.6667 17.7733 34.6667 16.6666C34.6667 15.56 33.7734 14.6666 32.6667 14.6666H27.3334C26.2267 14.6666 25.3334 15.56 25.3334 16.6666C25.3334 17.7733 26.2267 18.6666 27.3334 18.6666H28.0001ZM36.6667 33.3333C38.5067 33.3333 40.0001 34.8266 40.0001 36.6666C40.0001 38.5066 38.5067 40 36.6667 40C34.8267 40 33.3334 38.5066 33.3334 36.6666C33.3334 34.8266 34.8267 33.3333 36.6667 33.3333ZM34.8601 37.14L36.1934 38.4733C36.3467 38.6266 36.5601 38.6933 36.7734 38.66C36.9867 38.6266 37.1667 38.4933 37.2601 38.3L38.5934 35.6333C38.6332 35.5551 38.6571 35.4698 38.6635 35.3822C38.67 35.2947 38.6589 35.2068 38.631 35.1236C38.603 35.0405 38.5588 34.9637 38.5008 34.8978C38.4429 34.8319 38.3724 34.7783 38.2934 34.74C38.2152 34.7001 38.1299 34.6763 38.0424 34.6699C37.9549 34.6634 37.8669 34.6745 37.7838 34.7024C37.7006 34.7303 37.6238 34.7746 37.5579 34.8325C37.492 34.8905 37.4384 34.961 37.4001 35.04L36.4801 36.88L35.8001 36.2C35.5401 35.94 35.1201 35.94 34.8534 36.2C34.5934 36.46 34.5934 36.88 34.8534 37.1466L34.8601 37.14ZM38.1601 32.2466C38.4867 31.34 38.6601 30.3533 38.6601 29.3333C38.6601 24.5533 34.7734 20.6666 29.9934 20.6666C25.2134 20.6666 21.3267 24.5533 21.3267 29.3333C21.3267 34.1133 25.2134 38 29.9934 38C30.7267 38 31.4401 37.9066 32.1201 37.74C32.0401 37.3933 31.9934 37.04 31.9934 36.6666C31.9934 36.5733 31.9934 36.48 32.0001 36.3866C31.3601 36.5666 30.6867 36.6666 29.9934 36.6666C25.9467 36.6666 22.6601 33.38 22.6601 29.3333C22.6601 25.2866 25.9467 22 29.9934 22C34.0401 22 37.3267 25.2866 37.3267 29.3333C37.3267 30.2733 37.1467 31.1733 36.8267 32C37.2934 32.0133 37.7401 32.1 38.1601 32.24V32.2466ZM35.2601 32.2133C35.7473 31.3317 36.002 30.3406 36.0001 29.3333C36.0001 28.0428 35.5841 26.7867 34.8137 25.7514C34.0433 24.716 32.9597 23.9567 31.7236 23.586C30.4875 23.2153 29.1648 23.253 27.9518 23.6935C26.7389 24.1341 25.7003 24.954 24.9901 26.0315C24.28 27.1091 23.9363 28.3868 24.0098 29.6752C24.0834 30.9636 24.5705 32.194 25.3986 33.1837C26.2268 34.1733 27.352 34.8696 28.6073 35.1692C29.8625 35.4688 31.1809 35.3557 32.3667 34.8466C32.9001 33.6 33.9534 32.6266 35.2601 32.2133ZM15.3334 31.3333C15.7001 31.3333 16.0001 31.6333 16.0001 32C16.0001 32.3666 15.7001 32.6666 15.3334 32.6666C14.9667 32.6666 14.6667 32.3666 14.6667 32C14.6667 31.6333 14.9667 31.3333 15.3334 31.3333ZM29.3334 24.6666V29.3333C29.3334 29.5133 29.4067 29.68 29.5267 29.8066L31.5267 31.8066C31.7867 32.0666 32.2067 32.0666 32.4734 31.8066C32.7334 31.5466 32.7334 31.1266 32.4734 30.86L30.6667 29.0533V24.66C30.6667 24.2933 30.3667 23.9933 30.0001 23.9933C29.6334 23.9933 29.3334 24.2933 29.3334 24.66V24.6666ZM15.3334 26C15.7001 26 16.0001 26.3 16.0001 26.6666C16.0001 27.0333 15.7001 27.3333 15.3334 27.3333C14.9667 27.3333 14.6667 27.0333 14.6667 26.6666C14.6667 26.3 14.9667 26 15.3334 26ZM30.6667 19.3533V18.6666H29.3334V19.3533C29.7774 19.3262 30.2227 19.3262 30.6667 19.3533ZM33.3334 16.6666C33.3334 17.0333 33.0334 17.3333 32.6667 17.3333H27.3334C26.9667 17.3333 26.6667 17.0333 26.6667 16.6666C26.6667 16.3 26.9667 16 27.3334 16H32.6667C33.0334 16 33.3334 16.3 33.3334 16.6666Z" fill="#BCF6E1"/>
</svg>
