<svg width="56" height="56" viewBox="0 0 56 56" fill="none" xmlns="http://www.w3.org/2000/svg">
<rect width="56" height="56" rx="12" fill="#0066CC"/>
<path d="M38.3567 26.3863C39.0396 25.9158 39.7459 25.4296 39.7459 24.6894C39.7459 23.9492 39.0396 23.4626 38.3567 22.992C37.9878 22.7379 37.4829 22.3901 37.4222 22.1638C37.3563 21.9148 37.6156 21.3666 37.824 20.9261C38.1718 20.192 38.5313 19.4325 38.1732 18.8132C37.8099 18.1854 36.9647 18.1176 36.1478 18.0522C35.6678 18.0141 35.0702 17.9661 34.8956 17.7915C34.721 17.6169 34.673 17.0193 34.6349 16.5388C34.569 15.7219 34.5017 14.8772 33.8739 14.5139C33.2546 14.1558 32.4956 14.5153 31.7614 14.8626C31.321 15.071 30.7727 15.3308 30.5238 15.2645C30.297 15.2042 29.9497 14.6988 29.6956 14.3303C29.225 13.6475 28.7379 12.9412 27.9977 12.9412C27.2574 12.9412 26.7709 13.647 26.3007 14.3303C26.0466 14.6993 25.6989 15.2042 25.4725 15.2645C25.2236 15.3313 24.6763 15.0715 24.2353 14.863C23.5007 14.5158 22.7417 14.1562 22.1224 14.5148C21.4956 14.8781 21.4283 15.7233 21.3629 16.5398C21.3252 17.0198 21.2772 17.6174 21.1026 17.7925C20.9285 17.9666 20.3309 18.015 19.8509 18.0532C19.0339 18.119 18.1892 18.1868 17.8264 18.8141C17.4683 19.4339 17.8278 20.1929 18.1756 20.927C18.384 21.367 18.6438 21.9153 18.5774 22.1638C18.5172 22.3906 18.0118 22.7379 17.6433 22.992C16.9605 23.4626 16.2542 23.9492 16.2542 24.6894C16.2542 25.4292 16.9605 25.9158 17.6433 26.3863C18.0123 26.6405 18.5172 26.9882 18.5774 27.2146C18.6438 27.4626 18.3845 28.0108 18.1756 28.4518C17.8273 29.1859 17.4683 29.9445 17.8259 30.5638C18.1887 31.1915 19.0339 31.2593 19.8509 31.3247C19.984 31.3355 20.1257 31.3473 20.2654 31.3619L16.5977 40.0781C16.5279 40.2418 16.5058 40.4219 16.534 40.5976C16.5623 40.7733 16.6396 40.9375 16.7572 41.071C16.8737 41.2057 17.026 41.3047 17.1963 41.3565C17.3667 41.4083 17.5483 41.4108 17.72 41.3638L19.737 40.8259L20.929 42.632C21.1276 42.9332 21.4711 43.0866 21.8076 43.0546C21.9786 43.0392 22.1423 42.9777 22.2811 42.8765C22.4199 42.7754 22.5287 42.6385 22.5958 42.4805L25.9572 34.568C26.5422 35.3285 27.0711 36.4376 27.9981 36.4376C28.9266 36.4376 29.4556 35.3252 30.0424 34.5647L33.4052 42.4805C33.4722 42.6386 33.5809 42.7757 33.7197 42.8769C33.8585 42.9782 34.0222 43.0399 34.1932 43.0554C34.3643 43.071 34.5364 43.0398 34.6912 42.9652C34.846 42.8907 34.9776 42.7755 35.072 42.632L36.273 40.8221L38.281 41.3633C38.4526 41.4104 38.6341 41.4081 38.8045 41.3564C38.9749 41.3048 39.1272 41.206 39.2438 41.0715C39.3614 40.938 39.4389 40.7739 39.4672 40.5982C39.4955 40.4224 39.4735 40.2423 39.4038 40.0786L35.7356 31.3633C35.8744 31.3492 36.0156 31.3369 36.1483 31.3261C36.9652 31.2612 37.8104 31.1934 38.1732 30.5656C38.5313 29.9463 38.1723 29.1868 37.8245 28.4527C37.616 28.0118 37.3563 27.4635 37.4226 27.2155C37.4833 26.9887 37.9878 26.6405 38.3567 26.3863ZM21.7139 42.1134L20.5224 40.3073C20.4126 40.1405 20.2529 40.0126 20.0662 39.9419C19.8794 39.8711 19.6751 39.8612 19.4824 39.9134L17.4645 40.4433L21.1586 31.6659C21.232 31.8005 21.2744 32.032 21.296 32.1826C21.3031 32.247 21.3196 32.3002 21.3624 32.84C21.4273 33.656 21.4942 34.5002 22.1219 34.8659C22.7422 35.2221 23.5007 34.864 24.2339 34.5172C24.5172 34.383 24.8452 34.2278 25.1097 34.152L21.7139 42.1134ZM36.5177 39.9134C36.3249 39.8613 36.1207 39.8714 35.934 39.9421C35.7472 40.0128 35.5876 40.1406 35.4777 40.3073L34.2711 42.112L30.8899 34.1529C31.1939 34.2414 31.569 34.4268 31.9478 34.6033C32.7732 34.9892 33.6626 35.3073 34.2137 34.5515C34.2245 34.5369 34.2382 34.5247 34.2485 34.5092L34.2551 34.4969C34.5351 34.0678 34.5859 33.4466 34.6344 32.8395C34.648 32.6706 34.6626 32.488 34.6838 32.3139L34.6885 32.272C34.6951 32.2221 34.7026 32.1732 34.7101 32.1256C34.7214 32.055 34.7337 31.9868 34.7487 31.9247C34.7549 31.8974 34.7629 31.8734 34.7694 31.8489C34.7883 31.7835 34.809 31.7233 34.8334 31.6762L34.8405 31.6649L38.5309 40.4555L36.5177 39.9134ZM36.9732 28.855C37.1709 29.2725 37.4692 29.9026 37.3582 30.0941C37.2424 30.2946 36.5384 30.351 36.0725 30.3882C35.6951 30.4183 35.3125 30.4513 34.9727 30.5388C33.8706 30.7675 33.776 31.7459 33.6946 32.7656C33.6664 33.1148 33.6283 33.5976 33.5271 33.8663C33.3869 34.2353 33.0593 34.0828 32.3365 33.7463C32.3347 33.7454 32.3328 33.7447 32.3309 33.744L32.1643 33.6654C31.7925 33.4894 31.4132 33.3125 31.0466 33.223C31.0198 33.2169 30.992 33.208 30.9652 33.2023C30.9549 33.2005 30.945 33.2 30.9346 33.1976C30.5774 33.1289 30.2457 33.1572 29.9407 33.3605C29.5469 33.6099 29.2287 34.0663 28.92 34.5143C28.6504 34.9049 28.2433 35.4965 27.9977 35.4965C27.752 35.4965 27.345 34.9054 27.0758 34.5143C26.1007 33.0979 25.6443 32.8273 24.0734 33.5529L23.8325 33.6645C23.4156 33.8621 22.7854 34.1595 22.5939 34.0489C22.3939 33.9332 22.3384 33.2292 22.3012 32.7638C22.1483 30.8419 21.7972 30.5374 19.9262 30.3868C19.4603 30.3492 18.7567 30.2927 18.641 30.0927C18.5299 29.9012 18.8283 29.2715 19.0259 28.855C19.329 28.215 19.6424 27.5539 19.4871 26.9713C19.3365 26.4099 18.7473 26.0038 18.1774 25.6113C17.7864 25.3421 17.1953 24.9346 17.1953 24.6889C17.1953 24.4438 17.7864 24.0367 18.177 23.7675C18.7473 23.3746 19.3365 22.9689 19.4871 22.4066C19.6424 21.8249 19.329 21.1638 19.0259 20.5242C18.8283 20.1073 18.5299 19.4772 18.641 19.2856C18.7567 19.0856 19.4607 19.0287 19.9262 18.9915C20.6259 18.935 21.3492 18.8772 21.7685 18.4579C22.1883 18.0376 22.2457 17.3143 22.3012 16.6146C22.3389 16.1487 22.3944 15.4452 22.5944 15.3299C22.7854 15.2193 23.4156 15.5167 23.833 15.7139C24.4725 16.0165 25.1337 16.3294 25.7153 16.1741C26.2772 16.0235 26.6833 15.4343 27.0758 14.8645C27.345 14.4734 27.752 13.8823 27.9977 13.8823C28.2433 13.8823 28.6509 14.4734 28.92 14.8645C29.313 15.4339 29.7186 16.0235 30.2805 16.1736C30.8626 16.3289 31.5247 16.016 32.1643 15.7134C32.5807 15.5158 33.2113 15.2179 33.4024 15.3285C33.6029 15.4442 33.6593 16.1482 33.6965 16.6146C33.753 17.3139 33.8104 18.0372 34.2302 18.4569C34.6499 18.8767 35.3732 18.9346 36.0725 18.9906C36.5384 19.0282 37.2424 19.0847 37.3582 19.2842C37.4692 19.4762 37.1709 20.1063 36.9737 20.5233C36.6706 21.1628 36.3572 21.824 36.513 22.4061C36.6636 22.9685 37.2527 23.3741 37.8226 23.767C38.2137 24.0362 38.8047 24.4433 38.8047 24.6894C38.8047 24.935 38.2137 25.3421 37.8226 25.6118C37.2527 26.0042 36.6631 26.4103 36.513 26.9722C36.3577 27.5543 36.6706 28.2155 36.9732 28.855Z" fill="#BCF6E1"/>
<path d="M28.0001 17.7238C24.1591 17.7238 21.0344 20.8485 21.0344 24.6894C21.0344 28.5294 24.1591 31.6546 28.0001 31.6546C31.841 31.6546 34.9657 28.5299 34.9657 24.6894C34.9657 20.8485 31.841 17.7238 28.0001 17.7238ZM28.0001 30.7134C24.6777 30.7134 21.9756 28.0108 21.9756 24.6894C21.9756 21.367 24.6782 18.6649 28.0001 18.6649C31.322 18.6649 34.0245 21.3675 34.0245 24.6894C34.0245 28.0108 31.322 30.7134 28.0001 30.7134Z" fill="#BCF6E1"/>
<path d="M31.2014 23.1586H29.3464L28.7689 21.3906C28.716 21.2278 28.6128 21.086 28.4742 20.9856C28.3357 20.8851 28.1688 20.8312 27.9976 20.8315C27.6447 20.8315 27.3351 21.0574 27.2259 21.392L26.6527 23.1586H24.7986C24.6272 23.1582 24.4602 23.2123 24.3215 23.3129C24.1828 23.4135 24.0796 23.5556 24.0268 23.7186C23.9734 23.8816 23.9731 24.0574 24.0261 24.2205C24.079 24.3837 24.1825 24.5258 24.3214 24.6264L25.8216 25.7172L25.2489 27.4819C25.1958 27.6448 25.1957 27.8204 25.2487 27.9834C25.3018 28.1463 25.4052 28.2883 25.544 28.3887C25.8292 28.5958 26.2127 28.5958 26.4979 28.3887L27.9972 27.2984L29.5035 28.3911C29.6421 28.492 29.8091 28.5464 29.9805 28.5463C30.152 28.5462 30.319 28.4917 30.4574 28.3906C30.5962 28.2901 30.6995 28.1481 30.7524 27.9852C30.8053 27.8222 30.8052 27.6467 30.752 27.4838L30.1784 25.7172L31.6786 24.6259C31.8173 24.5253 31.9205 24.3833 31.9733 24.2204C32.0262 24.0574 32.026 23.8819 31.9727 23.7191C31.92 23.556 31.8169 23.4139 31.6783 23.3132C31.5397 23.2125 31.3727 23.1584 31.2014 23.1586ZM29.5482 25.0118C29.4097 25.1123 29.3065 25.2542 29.2537 25.4171C29.2008 25.5799 29.201 25.7554 29.2541 25.9181L29.7341 27.3953L28.4729 26.481C28.3344 26.3802 28.1675 26.3259 27.9962 26.326C27.8248 26.3261 27.658 26.3805 27.5195 26.4814L26.2678 27.392L26.7459 25.9181C26.799 25.7553 26.7991 25.5797 26.7462 25.4168C26.6932 25.2538 26.59 25.1119 26.4513 25.0113L25.1976 24.0998H26.7468C27.0998 24.0998 27.4104 23.8739 27.5186 23.5388L27.9986 22.0612L28.4809 23.5403C28.5338 23.7032 28.637 23.8451 28.7757 23.9457C28.9144 24.0462 29.0814 24.1002 29.2527 24.0998H30.8024L29.5482 25.0118Z" fill="#BCF6E1"/>
</svg>
