<svg width="56" height="56" viewBox="0 0 56 56" fill="none" xmlns="http://www.w3.org/2000/svg">
<rect width="56" height="56" rx="12" fill="#0066CC"/>
<path d="M33.5 23.5V23C33.5 22.6022 33.342 22.2206 33.0607 21.9393C32.7794 21.658 32.3978 21.5 32 21.5V20.576C31.9992 19.8429 32.1601 19.1186 32.4712 18.4548C32.7824 17.791 33.2361 17.2039 33.8 16.7355L34.821 15.8855C34.8773 15.8383 34.9226 15.7793 34.9535 15.7127C34.9844 15.6461 35.0003 15.5735 35 15.5V13C35 12.8674 34.9473 12.7402 34.8536 12.6464C34.7598 12.5527 34.6326 12.5 34.5 12.5H20.5C20.3674 12.5 20.2402 12.5527 20.1464 12.6464C20.0527 12.7402 20 12.8674 20 13V16C20 16.1326 20.0527 16.2598 20.1464 16.3536C20.2402 16.4473 20.3674 16.5 20.5 16.5H23.9685C23.8594 17.4691 23.4234 18.3722 22.7325 19.0605L22.1465 19.6465C22.0766 19.7164 22.029 19.8055 22.0097 19.9025C21.9904 19.9995 22.0003 20.1 22.0382 20.1913C22.076 20.2827 22.1401 20.3608 22.2223 20.4157C22.3045 20.4706 22.4011 20.5 22.5 20.5H26V21.5C25.6022 21.5 25.2206 21.658 24.9393 21.9393C24.658 22.2206 24.5 22.6022 24.5 23V23.5C23.8372 23.5008 23.2018 23.7644 22.7331 24.2331C22.2644 24.7018 22.0008 25.3372 22 26V41C22.0008 41.6628 22.2644 42.2982 22.7331 42.7669C23.2018 43.2356 23.8372 43.4992 24.5 43.5H33.5C34.1628 43.4992 34.7982 43.2356 35.2669 42.7669C35.7356 42.2982 35.9992 41.6628 36 41V26C35.9992 25.3372 35.7356 24.7018 35.2669 24.2331C34.7982 23.7644 34.1628 23.5008 33.5 23.5ZM21 13.5H22V15.5H21V13.5ZM23.69 19.5C24.2893 18.8136 24.7008 17.9839 24.8845 17.0915L26 18.207V19.5H23.69ZM26.8535 17.6465L24.8535 15.6465C24.7598 15.5527 24.6326 15.5 24.5 15.5H23V13.5H34V15.2655L33.1585 15.9655C32.4819 16.5281 31.9377 17.2329 31.5647 18.0298C31.1916 18.8267 30.9988 19.6961 31 20.576V21.5H27V18C27 17.8674 26.9473 17.7402 26.8535 17.6465ZM25.5 23C25.5 22.8674 25.5527 22.7402 25.6464 22.6464C25.7402 22.5527 25.8674 22.5 26 22.5H32C32.1326 22.5 32.2598 22.5527 32.3536 22.6464C32.4473 22.7402 32.5 22.8674 32.5 23V23.5H25.5V23ZM24.5 24.5H33.5C33.8978 24.5 34.2794 24.658 34.5607 24.9393C34.842 25.2206 35 25.6022 35 26V27.5H23V26C23 25.6022 23.158 25.2206 23.4393 24.9393C23.7206 24.658 24.1022 24.5 24.5 24.5ZM35 28.5V38.5H23V28.5H35ZM33.5 42.5H24.5C24.1022 42.5 23.7206 42.342 23.4393 42.0607C23.158 41.7794 23 41.3978 23 41V39.5H35V41C35 41.3978 34.842 41.7794 34.5607 42.0607C34.2794 42.342 33.8978 42.5 33.5 42.5Z" fill="#BCF6E1"/>
<path d="M24.5 37.5H29.5C30.6931 37.4987 31.8369 37.0241 32.6805 36.1805C33.5241 35.3369 33.9987 34.1931 34 33C34 32.8674 33.9473 32.7402 33.8536 32.6464C33.7598 32.5527 33.6326 32.5 33.5 32.5H30.5C30.3329 32.5005 30.166 32.5103 30 32.5295V30C30 29.8674 29.9473 29.7402 29.8536 29.6464C29.7598 29.5527 29.6326 29.5 29.5 29.5H29C27.6744 29.5015 26.4034 30.0287 25.4661 30.9661C24.5287 31.9034 24.0015 33.1744 24 34.5V37C24 37.1326 24.0527 37.2598 24.1464 37.3536C24.2402 37.4473 24.3674 37.5 24.5 37.5ZM32.9645 33.5C32.8432 34.3326 32.4264 35.0938 31.7904 35.6445C31.1543 36.1953 30.3414 36.499 29.5 36.5H29.1355C29.9509 36.0619 30.6981 35.5072 31.3535 34.8535L30.6465 34.1465C29.7135 35.0764 28.5781 35.778 27.329 36.1965L27.079 36.28C27.2447 35.4949 27.6748 34.7906 28.2975 34.2845C28.9202 33.7785 29.6977 33.5016 30.5 33.5H32.9645ZM29 30.5V32.7625C28.2046 33.0448 27.5044 33.5449 26.9792 34.2056C26.4541 34.8664 26.125 35.6614 26.0295 36.5H25.589C25.7549 35.4928 26.1413 34.5346 26.7205 33.694C27.0605 33.2166 27.4394 32.7683 27.8535 32.3535L27.1465 31.6465C26.693 32.1004 26.2781 32.5913 25.906 33.114C25.531 33.6456 25.2265 34.2236 25 34.8335V34.5C25.0012 33.4395 25.423 32.4228 26.1729 31.6729C26.9228 30.923 27.9395 30.5012 29 30.5Z" fill="#BCF6E1"/>
</svg>
