<svg width="16" height="16" viewBox="0 0 16 16" fill="none" xmlns="http://www.w3.org/2000/svg">
<path d="M8 16C7.95241 16 7.90478 15.9927 7.85884 15.9782C6.02891 15.4004 4.46209 14.2768 3.32769 12.729C2.19334 11.1812 1.59375 9.34872 1.59375 7.42972V2.65625C1.59375 2.39738 1.80362 2.1875 2.0625 2.1875C3.41641 2.1875 4.64734 1.44512 5.27769 0.250062C5.31749 0.174596 5.37714 0.111425 5.4502 0.0673592C5.52326 0.0232931 5.60696 3.15287e-06 5.69228 2.0703e-10L10.3077 2.0703e-10C10.393 -2.53532e-06 10.4767 0.0232847 10.5498 0.0673511C10.6229 0.111418 10.6825 0.174592 10.7223 0.250062C11.3527 1.44512 12.5836 2.1875 13.9347 2.1875C14.1936 2.1875 14.4062 2.39738 14.4062 2.65625V7.42972C14.4062 9.34872 13.8067 11.1812 12.6723 12.729C11.5379 14.2768 9.97109 15.4003 8.14116 15.9782C8.09522 15.9928 8.04759 16 8 16Z" fill="#54CB9F"/>
<path d="M13.9347 2.1875C12.5836 2.1875 11.3527 1.44512 10.7223 0.250062C10.6825 0.174592 10.6229 0.111417 10.5498 0.0673502C10.4767 0.0232834 10.393 -3.70893e-06 10.3077 4.43078e-10L8 4.43078e-10V16C8.04759 16 8.09522 15.9927 8.14116 15.9782C9.97109 15.4004 11.5379 14.2768 12.6723 12.729C13.8067 11.1812 14.4062 9.34872 14.4062 7.42972V2.65625C14.4062 2.39738 14.1936 2.1875 13.9347 2.1875Z" fill="#003D7A"/>
<path d="M8 14.0057C7.93807 14.0057 7.87675 13.9934 7.81959 13.9696C5.17653 12.8675 3.46875 10.3004 3.46875 7.42975V4.23203C3.46875 4.13332 3.49991 4.03712 3.55779 3.95716C3.61567 3.8772 3.69732 3.81755 3.79109 3.78672C4.78452 3.46067 5.66383 2.85702 6.32509 2.04713C6.36905 1.99333 6.42442 1.94998 6.48719 1.92021C6.54996 1.89044 6.61856 1.875 6.68803 1.875H9.31194C9.45262 1.875 9.58591 1.93819 9.67491 2.04713C10.3361 2.85713 11.2154 3.46089 12.2089 3.78703C12.3027 3.81787 12.3843 3.87752 12.4422 3.95748C12.5001 4.03744 12.5312 4.13363 12.5312 4.23234V7.42975C12.5312 10.3004 10.8234 12.8675 8.18038 13.9696C8.12323 13.9934 8.06192 14.0057 8 14.0057Z" fill="#E0FBF1"/>
<path d="M12.2089 3.78703C11.2155 3.46089 10.3362 2.85713 9.67494 2.04713C9.63097 1.99333 9.57559 1.94998 9.51281 1.92021C9.45003 1.89044 9.38142 1.875 9.31194 1.875H8V14.0057C8.06193 14.0057 8.12325 13.9934 8.18041 13.9696C10.8235 12.8675 12.5312 10.3004 12.5312 7.42975V4.23234C12.5313 4.13363 12.5001 4.03744 12.4422 3.95748C12.3843 3.87752 12.3027 3.81787 12.2089 3.78703Z" fill="#DDEBFA"/>
<path d="M7.27083 9.89865C7.20926 9.89874 7.14828 9.88665 7.0914 9.86309C7.03452 9.83952 6.98286 9.80494 6.93939 9.76134L5.48105 8.303C5.29798 8.11996 5.29798 7.82315 5.48105 7.64009C5.66408 7.45703 5.96089 7.45703 6.14395 7.64009L7.27086 8.76696L9.85608 6.18178C10.0391 5.99871 10.3359 5.99871 10.519 6.18178C10.702 6.36484 10.702 6.66162 10.519 6.84468L7.60233 9.76134C7.55884 9.80494 7.50717 9.83951 7.45028 9.86308C7.39339 9.88664 7.33241 9.89873 7.27083 9.89865Z" fill="#6B61B1"/>
<path d="M9.85606 6.18181L8 8.03785V9.36366L10.5189 6.84472C10.702 6.66166 10.702 6.36488 10.5189 6.18181C10.3359 5.99872 10.0391 5.99872 9.85606 6.18181Z" fill="#453D81"/>
</svg>
