<svg width="136" height="40" viewBox="0 0 136 40" fill="none" xmlns="http://www.w3.org/2000/svg">
<g clip-path="url(#clip0_361_1942)">
<path d="M47.1572 38.3093C46.656 38.3168 46.1581 38.2276 45.6902 38.0467C45.2642 37.8796 44.8789 37.6224 44.5604 37.2924C44.2365 36.9534 43.9889 36.5482 43.8345 36.1045C43.4979 35.0959 43.4979 34.0044 43.8345 32.9957C43.9909 32.5548 44.2383 32.152 44.5604 31.8139C44.8778 31.4859 45.2615 31.2302 45.6857 31.0642C46.6687 30.7009 47.7508 30.7167 48.7229 31.1085C49.1677 31.2991 49.5581 31.5983 49.8589 31.9788C50.1564 32.3657 50.3494 32.8233 50.4192 33.3072H49.5491C49.4858 32.9738 49.3389 32.6622 49.1223 32.4018C48.8982 32.1348 48.6161 31.9233 48.2977 31.7834C47.9344 31.6266 47.5419 31.5496 47.1466 31.5574C46.6453 31.5437 46.1498 31.6689 45.7145 31.9193C45.316 32.1654 44.9981 32.5238 44.8003 32.9499C44.5715 33.4534 44.4604 34.0029 44.4753 34.5562C44.4691 34.9813 44.5332 35.4044 44.6652 35.8083C44.7782 36.1571 44.9606 36.4792 45.2013 36.7549C45.4327 37.0141 45.72 37.2167 46.041 37.3474C46.3959 37.4895 46.7753 37.5595 47.1572 37.5535C47.5535 37.561 47.9471 37.4856 48.3129 37.3321C48.6362 37.1958 48.9214 36.9819 49.1436 36.7091C49.3627 36.4359 49.5063 36.1093 49.5597 35.7625H50.4299C50.3735 36.2531 50.1868 36.7193 49.8892 37.1122C49.5895 37.4991 49.1971 37.8033 48.7487 37.9963C48.2461 38.2123 47.7038 38.319 47.1572 38.3093Z" fill="white"/>
<path d="M51.6206 38.2178V30.8887H52.4315V38.2178H51.6206Z" fill="white"/>
<path d="M55.9637 38.3095C55.5124 38.3221 55.0666 38.2067 54.6774 37.9766C54.3171 37.7514 54.0328 37.422 53.8619 37.0315C53.6671 36.581 53.5717 36.0934 53.5825 35.6023C53.5708 35.1032 53.6661 34.6074 53.8619 34.1487C54.0299 33.7582 54.3081 33.4258 54.6622 33.1929C55.0441 32.958 55.4859 32.8407 55.9333 32.8554C56.4003 32.8362 56.8617 32.9626 57.2545 33.2173C57.6073 33.4633 57.8732 33.8157 58.0138 34.2235C58.1768 34.7016 58.2364 35.2091 58.1885 35.7122H54.3676C54.3632 36.0867 54.4329 36.4583 54.5726 36.8055C54.6851 37.0752 54.8776 37.3034 55.1239 37.459C55.3771 37.6074 55.6662 37.6825 55.9591 37.6758C56.2859 37.689 56.6083 37.597 56.8794 37.4132C57.1158 37.2454 57.2862 36.9995 57.3608 36.7185H58.1414C58.0896 37.0361 57.9531 37.3337 57.7466 37.5796C57.5406 37.8195 57.2801 38.006 56.9872 38.1232C56.6612 38.2509 56.3136 38.3142 55.9637 38.3095ZM54.3828 35.2557L54.2932 35.1351H57.4823L57.3927 35.2755C57.4121 34.9271 57.354 34.5786 57.2226 34.2556C57.117 34.013 56.9358 33.8115 56.7063 33.6815C56.4677 33.5537 56.2005 33.4895 55.9303 33.4952C55.6503 33.4882 55.3737 33.5579 55.13 33.6967C54.8985 33.836 54.7127 34.0403 54.5954 34.2846C54.4566 34.5872 54.3841 34.9163 54.3828 35.2496V35.2557Z" fill="white"/>
<path d="M61.2786 38.3099C60.9726 38.3128 60.6697 38.2476 60.3917 38.119C60.1227 37.9919 59.8851 37.8062 59.6962 37.5755C59.4935 37.322 59.3423 37.031 59.2513 36.7189C59.1438 36.3464 59.0926 35.9599 59.0994 35.5722C59.086 35.0699 59.1797 34.5707 59.3743 34.1079C59.5344 33.7301 59.7977 33.4056 60.1336 33.1719C60.4732 32.9507 60.871 32.8369 61.2756 32.8451C61.5575 32.8439 61.8372 32.8957 62.1002 32.9978C62.3385 33.0872 62.5553 33.2261 62.7365 33.4055C62.9098 33.5804 63.0399 33.7938 63.1161 34.0285H63.1754L63.2057 32.9429H63.9757V38.2183H63.2057L63.1754 37.122H63.1253C63.0002 37.4758 62.7627 37.7785 62.4495 37.9831C62.1009 38.2083 61.6928 38.3222 61.2786 38.3099ZM61.5383 37.6258C61.8502 37.6363 62.1578 37.55 62.4191 37.3785C62.6557 37.2188 62.8455 36.9985 62.9688 36.7402C63.0962 36.4768 63.1612 36.1873 63.1587 35.8943V35.25C63.1617 34.9521 63.0951 34.6577 62.9643 34.3904C62.8408 34.1334 62.6509 33.9146 62.4145 33.7567C62.152 33.6002 61.8521 33.5184 61.5469 33.52C61.2417 33.5216 60.9427 33.6066 60.6818 33.7659C60.4306 33.941 60.2358 34.1862 60.1214 34.4713C59.8622 35.1805 59.8622 35.9593 60.1214 36.6685C60.2334 36.9549 60.4267 37.2018 60.6772 37.3785C60.9322 37.5479 61.2328 37.6342 61.5383 37.6258Z" fill="white"/>
<path d="M65.4917 38.2181V32.9366H66.2616L66.292 34.0329H66.3528C66.4951 33.6648 66.7553 33.3548 67.0923 33.1519C67.423 32.9559 67.8003 32.8535 68.1842 32.8557C68.4423 32.8521 68.6991 32.8929 68.9435 32.9763C69.175 33.0549 69.3837 33.1897 69.551 33.3687C69.732 33.5699 69.8668 33.8086 69.9458 34.068C70.0468 34.4055 70.094 34.757 70.0855 35.1094V38.2181H69.2746V35.2712C69.2851 34.9399 69.2362 34.6094 69.1303 34.2955C69.0501 34.0624 68.8952 33.8627 68.6899 33.7275C68.4593 33.5947 68.1961 33.5301 67.9306 33.5413C67.6267 33.535 67.3278 33.6189 67.0711 33.7825C66.8253 33.9422 66.6278 34.1667 66.5001 34.4314C66.3622 34.722 66.2936 35.0409 66.2996 35.3628V38.2181H65.4917Z" fill="white"/>
<path d="M71.9171 32.0296C71.7823 32.0365 71.6498 31.9918 71.5466 31.9044C71.4998 31.8621 71.463 31.8099 71.4389 31.7515C71.4147 31.6931 71.4038 31.6301 71.4069 31.5669C71.4035 31.5047 71.4143 31.4424 71.4385 31.385C71.4627 31.3276 71.4997 31.2765 71.5466 31.2356C71.6512 31.151 71.7831 31.1081 71.9171 31.115C72.0477 31.1093 72.1759 31.1522 72.277 31.2356C72.3239 31.2765 72.3608 31.3276 72.385 31.385C72.4093 31.4424 72.4201 31.5047 72.4167 31.5669C72.4198 31.6301 72.4089 31.6931 72.3847 31.7515C72.3605 31.8099 72.3237 31.8621 72.277 31.9044C72.1771 31.9904 72.0485 32.0352 71.9171 32.0296ZM71.4964 38.2181V32.9366H72.3074V38.2181H71.4964Z" fill="white"/>
<path d="M73.8276 38.2181V32.9366H74.5991L74.6295 34.0329H74.6887C74.8316 33.6646 75.0923 33.3547 75.4298 33.1519C75.7598 32.9557 76.1367 32.8533 76.5201 32.8557C76.7782 32.8523 77.035 32.8931 77.2795 32.9763C77.5081 33.0561 77.714 33.1908 77.8793 33.3687C78.0608 33.5698 78.1961 33.8085 78.2757 34.068C78.3759 34.4057 78.4231 34.757 78.4154 35.1094V38.2181H77.6029V35.2712C77.6111 34.9394 77.5596 34.6089 77.4511 34.2955C77.3718 34.0623 77.2174 33.8624 77.0122 33.7275C76.7816 33.5947 76.5184 33.5301 76.2529 33.5412C75.9486 33.5352 75.6492 33.6191 75.3918 33.7825C75.1464 33.9422 74.9494 34.1667 74.8223 34.4314C74.6845 34.722 74.6159 35.0409 74.6219 35.3628V38.2181H73.8276Z" fill="white"/>
<path d="M81.9143 40.0043C81.5597 40.0105 81.2071 39.951 80.874 39.8287C80.5927 39.7246 80.3427 39.5495 80.1481 39.3202C79.9642 39.0961 79.8478 38.8238 79.8125 38.5354H80.6037C80.6274 38.7076 80.7045 38.8678 80.8239 38.9935C80.9505 39.1257 81.1067 39.2257 81.2795 39.2851C81.4893 39.356 81.7097 39.3901 81.931 39.3859C82.2333 39.3961 82.5346 39.3441 82.8163 39.2332C83.0396 39.142 83.2236 38.9744 83.3357 38.7599C83.4559 38.504 83.5127 38.2227 83.5012 37.9399V36.92H83.4617C83.3485 37.2557 83.1238 37.542 82.8254 37.7307C82.5298 37.9073 82.1969 38.0111 81.8538 38.0337C81.5107 38.0562 81.1672 37.9969 80.8512 37.8605C80.5931 37.7434 80.3655 37.5678 80.1861 37.3475C79.9898 37.1056 79.8432 36.8269 79.7548 36.5276C79.6505 36.1753 79.5993 35.8094 79.6029 35.4419C79.5958 34.9632 79.6905 34.4884 79.8808 34.0494C80.0367 33.6868 80.2922 33.3764 80.6174 33.1547C80.9423 32.9457 81.3221 32.8393 81.7077 32.8493C82.0993 32.841 82.4849 32.9471 82.8178 33.1547C83.1217 33.3431 83.3518 33.631 83.4693 33.97H83.5194L83.5498 32.9546H84.3197V37.8056C84.3373 38.2421 84.2371 38.6752 84.0297 39.0591C83.839 39.3814 83.549 39.6323 83.2036 39.7737C82.7931 39.9353 82.3549 40.0137 81.9143 40.0043ZM81.975 37.3582C82.2688 37.3667 82.5588 37.2898 82.8102 37.1368C83.0368 36.993 83.2176 36.7868 83.3311 36.5428C83.4485 36.2911 83.5082 36.0161 83.5058 35.7382V35.1274C83.5085 34.8503 83.4472 34.5764 83.3266 34.3273C83.2066 34.0771 83.0168 33.8673 82.7803 33.7237C82.5438 33.58 82.2709 33.5085 81.9947 33.5181C81.7018 33.5102 81.4131 33.5888 81.1641 33.744C80.9232 33.904 80.7367 34.1342 80.6295 34.4037C80.4979 34.7329 80.4349 35.0857 80.4442 35.4404C80.4355 35.7916 80.4985 36.1408 80.6295 36.4665C80.7361 36.7346 80.9208 36.964 81.1595 37.1246C81.4027 37.2806 81.6866 37.3603 81.975 37.3536V37.3582Z" fill="white"/>
<path d="M90.6311 38.3098C90.0896 38.3271 89.5511 38.2227 89.0547 38.0044C88.6649 37.8272 88.3384 37.5341 88.1193 37.1646C87.9082 36.7881 87.7978 36.3631 87.7988 35.9309H88.6796C88.679 36.244 88.7568 36.5523 88.9059 36.8272C89.0522 37.0848 89.2761 37.289 89.5452 37.4105C89.8918 37.5571 90.266 37.6259 90.6417 37.612C90.9771 37.6183 91.3113 37.5709 91.6318 37.4715C91.8878 37.3941 92.1157 37.2434 92.2879 37.0379C92.4505 36.8254 92.5338 36.5622 92.5233 36.2943C92.5299 36.092 92.4921 35.8908 92.4124 35.7049C92.335 35.5425 92.214 35.405 92.0631 35.3079C91.8691 35.1856 91.6583 35.0925 91.4374 35.0316C91.127 34.9419 90.8109 34.873 90.4913 34.8254C90.1213 34.7548 89.7552 34.6641 89.3949 34.5537C89.1136 34.4697 88.8472 34.3419 88.6052 34.175C88.4016 34.0336 88.2378 33.8416 88.1299 33.6177C88.0165 33.3683 87.9614 33.0962 87.9689 32.8222C87.9587 32.443 88.0648 32.0699 88.2726 31.7533C88.4946 31.4364 88.8039 31.1917 89.1626 31.0494C89.6087 30.8737 90.0853 30.7896 90.5642 30.8021C91.0466 30.7886 91.5262 30.8798 91.9705 31.0693C92.3285 31.2256 92.6342 31.4821 92.8513 31.8083C93.0601 32.143 93.1692 32.5309 93.1656 32.926H92.3031C92.3004 32.6403 92.2172 32.3613 92.0631 32.1213C91.9123 31.9035 91.701 31.7351 91.4557 31.6373C90.8666 31.4278 90.2244 31.4246 89.6333 31.6281C89.4057 31.7118 89.2062 31.8584 89.0578 32.0511C88.92 32.2443 88.8496 32.4777 88.8573 32.7153C88.8436 32.9524 88.913 33.1868 89.0532 33.3779C89.2273 33.5676 89.451 33.7041 89.6986 33.7719C90.0964 33.8946 90.5024 33.9885 90.9135 34.0528C91.2308 34.1041 91.5447 34.1744 91.8536 34.2635C92.1372 34.3441 92.4075 34.4666 92.6554 34.6269C92.8893 34.7825 93.08 34.9953 93.2097 35.2453C93.3586 35.5573 93.4295 35.9012 93.4162 36.247C93.4233 36.6306 93.3113 37.0069 93.0958 37.3234C92.8575 37.6506 92.5307 37.9018 92.1542 38.0472C91.6689 38.2357 91.1511 38.325 90.6311 38.3098Z" fill="white"/>
<path d="M96.786 38.3094C96.3346 38.3221 95.8889 38.2067 95.4997 37.9766C95.1393 37.7514 94.8551 37.4219 94.6842 37.0314C94.4893 36.581 94.394 36.0934 94.4048 35.6023C94.3931 35.1032 94.4884 34.6074 94.6842 34.1487C94.8522 33.7577 95.1311 33.4252 95.486 33.1928C95.8817 32.967 96.3297 32.8503 96.7847 32.8546C97.2396 32.8589 97.6854 32.984 98.0768 33.2173C98.4295 33.4633 98.6954 33.8156 98.8361 34.2235C98.9991 34.7015 99.0586 35.2091 99.0107 35.7122H95.1945C95.1897 36.0868 95.2599 36.4586 95.401 36.8054C95.5123 37.0754 95.7045 37.3038 95.9507 37.459C96.2039 37.6074 96.493 37.6824 96.786 37.6758C97.1132 37.6888 97.436 37.5968 97.7078 37.4131C97.9433 37.2448 98.113 36.9991 98.1876 36.7184H98.9682C98.9164 37.0361 98.7799 37.3337 98.5734 37.5796C98.3678 37.8199 98.1072 38.0065 97.8141 38.1232C97.4865 38.2511 97.1374 38.3144 96.786 38.3094ZM95.2051 35.2557L95.1155 35.135H98.3046L98.215 35.2755C98.2343 34.927 98.1762 34.5786 98.0449 34.2555C97.9392 34.013 97.758 33.8115 97.5286 33.6814C97.2905 33.5538 97.0238 33.4897 96.7541 33.4951C96.4736 33.4882 96.1965 33.5579 95.9522 33.6967C95.7208 33.8359 95.5349 34.0403 95.4177 34.2845C95.2789 34.5872 95.2064 34.9163 95.2051 35.2495V35.2557Z" fill="white"/>
<path d="M100.139 38.2176V32.9361H100.86L100.91 33.9118H100.95C101.054 33.589 101.269 33.314 101.557 33.1361C101.845 32.9552 102.179 32.8609 102.518 32.8644C102.579 32.8644 102.635 32.8644 102.688 32.8644C102.739 32.8668 102.79 32.8719 102.84 32.8796V33.6538C102.793 33.6538 102.743 33.6415 102.688 33.6385C102.634 33.6354 102.579 33.6385 102.518 33.6385C102.242 33.6315 101.968 33.6901 101.718 33.8095C101.497 33.9178 101.311 34.0867 101.182 34.2966C101.045 34.5316 100.964 34.7957 100.947 35.0677V38.2176H100.139Z" fill="white"/>
<path d="M105.232 38.218L103.331 32.9365H104.203L105.223 36.0346L105.723 37.5752H105.764L106.264 36.0346L107.284 32.9365H108.156L106.254 38.218H105.232Z" fill="white"/>
<path d="M109.546 32.0296C109.412 32.0365 109.279 31.9918 109.176 31.9044C109.129 31.8621 109.092 31.8099 109.068 31.7515C109.044 31.6931 109.033 31.6301 109.036 31.5669C109.033 31.5047 109.044 31.4424 109.068 31.385C109.092 31.3276 109.129 31.2765 109.176 31.2356C109.281 31.151 109.412 31.1081 109.546 31.115C109.677 31.1096 109.805 31.1525 109.906 31.2356C109.953 31.2765 109.99 31.3276 110.014 31.385C110.039 31.4424 110.049 31.5047 110.046 31.5669C110.049 31.6301 110.038 31.6931 110.014 31.7515C109.99 31.8099 109.953 31.8621 109.906 31.9044C109.806 31.9902 109.678 32.0349 109.546 32.0296ZM109.126 38.2181V32.9366H109.937V38.2181H109.126Z" fill="white"/>
<path d="M113.659 38.3099C113.305 38.3147 112.952 38.2477 112.624 38.113C112.322 37.9886 112.05 37.8001 111.828 37.5602C111.602 37.3127 111.429 37.0219 111.318 36.7052C111.193 36.3444 111.133 35.9646 111.139 35.5829C111.133 35.2047 111.194 34.8285 111.318 34.4713C111.43 34.151 111.607 33.8577 111.839 33.6102C112.066 33.368 112.343 33.1774 112.65 33.0513C112.98 32.918 113.334 32.8516 113.69 32.8559C114.065 32.8491 114.437 32.9247 114.78 33.0773C115.089 33.2148 115.358 33.4292 115.561 33.7003C115.763 33.9738 115.888 34.2972 115.922 34.6362H115.131C115.088 34.411 114.988 34.2007 114.841 34.0255C114.703 33.8647 114.528 33.7405 114.331 33.6636C114.12 33.5811 113.896 33.5401 113.67 33.543C113.42 33.5409 113.172 33.5929 112.944 33.6957C112.736 33.7915 112.553 33.9348 112.41 34.114C112.257 34.3042 112.143 34.5226 112.074 34.7569C111.994 35.0278 111.955 35.3094 111.959 35.5921C111.948 35.9661 112.022 36.3377 112.174 36.6792C112.302 36.9635 112.509 37.2047 112.77 37.374C113.012 37.5151 113.285 37.5968 113.564 37.6124C113.844 37.6281 114.124 37.5772 114.381 37.464C114.581 37.3686 114.757 37.2293 114.896 37.0564C115.036 36.8768 115.127 36.6637 115.161 36.438H115.951C115.919 36.7942 115.791 37.135 115.582 37.4243C115.373 37.7073 115.095 37.9322 114.776 38.0779C114.425 38.2368 114.044 38.316 113.659 38.3099Z" fill="white"/>
<path d="M119.094 38.3094C118.643 38.3223 118.197 38.2069 117.808 37.9766C117.447 37.7514 117.163 37.4219 116.992 37.0314C116.797 36.5811 116.701 36.0935 116.711 35.6022C116.7 35.1031 116.796 34.6073 116.992 34.1486C117.16 33.7581 117.438 33.4258 117.793 33.1928C118.189 32.9676 118.637 32.8513 119.092 32.8556C119.547 32.8599 119.993 32.9846 120.385 33.2172C120.737 33.4642 121.002 33.8162 121.144 34.2235C121.306 34.7017 121.366 35.2091 121.319 35.7122H117.503C117.497 36.0868 117.566 36.4587 117.708 36.8054C117.82 37.0752 118.013 37.3034 118.259 37.459C118.512 37.6076 118.801 37.6827 119.094 37.6758C119.421 37.689 119.743 37.597 120.014 37.4131C120.25 37.2453 120.42 36.9994 120.494 36.7184H121.276C121.224 37.0362 121.087 37.3338 120.88 37.5796C120.674 37.8199 120.414 38.0064 120.121 38.1231C119.794 38.2513 119.445 38.3145 119.094 38.3094ZM117.513 35.2556L117.422 35.135H120.611L120.52 35.2755C120.54 34.927 120.482 34.5784 120.35 34.2555C120.245 34.0132 120.064 33.8117 119.835 33.6814C119.596 33.5538 119.329 33.4897 119.059 33.4951C118.779 33.4882 118.502 33.5579 118.259 33.6967C118.027 33.8358 117.841 34.0402 117.723 34.2845C117.585 34.5874 117.514 34.9165 117.513 35.2495V35.2556Z" fill="white"/>
<path d="M124.327 38.3248C124.029 38.329 123.732 38.2884 123.446 38.2042C123.205 38.1336 122.978 38.0193 122.777 37.8667C122.594 37.7293 122.447 37.5503 122.347 37.3445C122.244 37.1326 122.19 36.9007 122.186 36.6651H122.986C122.992 36.8762 123.061 37.0807 123.182 37.2529C123.304 37.4151 123.471 37.5365 123.662 37.601C123.883 37.6772 124.115 37.7143 124.349 37.711C124.676 37.732 125.003 37.6516 125.284 37.4804C125.389 37.408 125.474 37.3098 125.531 37.1952C125.588 37.0806 125.615 36.9533 125.609 36.8254C125.62 36.6484 125.57 36.4729 125.469 36.3276C125.354 36.1963 125.205 36.1005 125.038 36.0513C124.79 35.9717 124.536 35.9145 124.279 35.8802C123.911 35.8347 123.549 35.7502 123.199 35.6283C122.942 35.5428 122.716 35.3836 122.547 35.1702C122.392 34.9416 122.315 34.6682 122.327 34.3915C122.321 34.1011 122.409 33.8167 122.578 33.5807C122.758 33.3391 123 33.1512 123.278 33.0372C123.611 32.9001 123.969 32.8336 124.329 32.8417C124.689 32.8321 125.047 32.8987 125.38 33.0372C125.656 33.1545 125.895 33.3462 126.071 33.5914C126.242 33.8416 126.332 34.1384 126.33 34.4419H125.541C125.537 34.2393 125.477 34.0417 125.366 33.8724C125.26 33.7304 125.113 33.6239 124.945 33.567C124.744 33.499 124.532 33.4665 124.32 33.4708C124.012 33.4526 123.706 33.534 123.448 33.7029C123.352 33.772 123.273 33.8638 123.221 33.9703C123.168 34.0767 123.141 34.1946 123.144 34.3136C123.136 34.4828 123.19 34.649 123.296 34.7809C123.422 34.9144 123.583 35.0088 123.761 35.0527C124.022 35.1271 124.288 35.1827 124.557 35.2191C124.903 35.2611 125.244 35.3421 125.573 35.4603C125.83 35.5478 126.055 35.7112 126.218 35.9291C126.377 36.1751 126.454 36.4654 126.438 36.7582C126.448 37.0628 126.356 37.362 126.178 37.6087C125.988 37.8526 125.734 38.0373 125.443 38.1416C125.086 38.2728 124.708 38.3349 124.327 38.3248Z" fill="white"/>
<path d="M43.5854 12.7051V10.1582H56.3555V12.7051H43.5854ZM48.4739 26.2944V12.3997H51.4018V26.2944H48.4739Z" fill="white"/>
<path d="M57.3052 26.2976V14.5207H59.7927L59.9248 16.4904H60.0129C60.2771 15.7371 60.7069 15.1946 61.3022 14.8627C61.9271 14.5233 62.6285 14.3519 63.3387 14.365H64.0205V16.9775C63.9324 16.9775 63.8261 16.9775 63.7016 16.9668C63.5771 16.9561 63.4404 16.9561 63.2946 16.9561C62.6894 16.9361 62.0874 17.053 61.533 17.2981C61.0854 17.5079 60.7139 17.8527 60.47 18.2845C60.2117 18.7662 60.0702 19.3024 60.0569 19.8496V26.2915L57.3052 26.2976Z" fill="white"/>
<path d="M69.167 26.4977C68.3783 26.52 67.5973 26.3369 66.8997 25.9663C66.2631 25.6068 65.7575 25.052 65.457 24.383C65.1259 23.6826 64.9609 22.8301 64.9619 21.8254V14.5208H67.7137V21.0956C67.6993 21.6714 67.7888 22.2451 67.9779 22.7889C68.1316 23.2219 68.4162 23.5956 68.7919 23.8577C69.2202 24.1264 69.7196 24.2579 70.2239 24.2348C70.7671 24.2472 71.3011 24.0927 71.7547 23.792C72.1882 23.4948 72.5339 23.0854 72.7555 22.6072C72.9979 22.0814 73.1184 21.5071 73.1078 20.9276V14.5146H75.8611V26.2916H73.2187L73.1078 24.0119H72.9757C72.7091 24.7723 72.1927 25.4185 71.5117 25.8442C70.8084 26.283 69.9946 26.5098 69.167 26.4977Z" fill="white"/>
<path d="M82.4791 26.4978C81.2895 26.4978 80.2801 26.2505 79.451 25.7558C78.622 25.2613 77.9589 24.5292 77.5466 23.6532C77.0879 22.6587 76.8619 21.5718 76.886 20.4758C76.886 19.2207 77.1062 18.132 77.5466 17.2097C77.9538 16.3246 78.6128 15.5807 79.4403 15.0721C80.2614 14.5713 81.2374 14.3204 82.3682 14.3193C83.6601 14.3193 84.7231 14.6033 85.5573 15.1713C86.3905 15.7452 87.0194 16.5717 87.3523 17.5304C87.7199 18.5341 87.8449 19.6848 87.7274 20.9827H79.577C79.5567 21.6331 79.6807 22.2798 79.94 22.876C80.1547 23.3535 80.5078 23.7547 80.9529 24.0273C81.4185 24.2942 81.9478 24.4283 82.4837 24.4151C83.1731 24.4151 83.7345 24.2675 84.1678 23.9724C84.5863 23.6962 84.8944 23.2804 85.038 22.7982H87.6257C87.5247 23.5303 87.2193 24.2186 86.7449 24.7831C86.2554 25.3494 85.6355 25.7866 84.9393 26.0566C84.1546 26.3597 83.3196 26.5095 82.4791 26.4978ZM79.577 19.5016L79.3355 19.213H85.3022L85.038 19.5184C85.0673 18.7957 84.9717 18.2058 84.751 17.7487C84.5533 17.3154 84.2214 16.9581 83.8049 16.7303C83.3625 16.5012 82.8703 16.3868 82.3728 16.3974C81.8663 16.3853 81.3656 16.5075 80.921 16.7517C80.5006 16.997 80.1631 17.3635 79.9521 17.8037C79.7015 18.334 79.5733 18.9145 79.577 19.5016Z" fill="white"/>
<path d="M96.7445 26.4981C95.6294 26.5131 94.5211 26.3216 93.4749 25.9332C92.5296 25.5759 91.6705 25.0211 90.954 24.3055C90.2322 23.5699 89.6801 22.6838 89.3367 21.7098C88.9462 20.5898 88.756 19.4091 88.7748 18.2224C88.7554 17.0396 88.9457 15.8629 89.3367 14.7472C89.6805 13.7734 90.2325 12.8873 90.954 12.1515C91.6701 11.4359 92.5294 10.8815 93.4749 10.5253C94.5209 10.1362 95.6293 9.94468 96.7445 9.96037C97.9844 9.93829 99.215 10.1797 100.356 10.6689C101.367 11.1042 102.255 11.7865 102.937 12.6538C103.608 13.5226 104.028 14.56 104.152 15.6526H101.171C101.051 15.0404 100.78 14.4685 100.382 13.9898C99.969 13.5059 99.4487 13.1267 98.863 12.8828C98.1927 12.6066 97.4733 12.4709 96.7491 12.4843C95.8289 12.4584 94.9188 12.682 94.1142 13.1317C93.3559 13.5856 92.7531 14.2609 92.3861 15.0678C91.974 15.9239 91.7685 16.9719 91.7695 18.2117C91.7562 19.0518 91.8751 19.8887 92.1218 20.6914C92.3255 21.3602 92.6665 21.9787 93.1226 22.5068C93.5513 22.9905 94.0871 23.366 94.6868 23.6032C95.3432 23.8564 96.0415 23.9818 96.7445 23.9727C97.4618 23.9846 98.1739 23.849 98.8372 23.5741C99.4306 23.3266 99.9591 22.9447 100.382 22.458C100.791 21.9799 101.065 21.3997 101.174 20.7784H104.146C104.032 21.8712 103.616 22.9103 102.947 23.7787C102.265 24.652 101.378 25.3406 100.365 25.782C99.2219 26.2751 97.988 26.5191 96.7445 26.4981Z" fill="white"/>
<path d="M109.768 26.4982C109.093 26.5071 108.425 26.3669 107.809 26.0874C107.218 25.8125 106.698 25.4032 106.291 24.8919C105.84 24.3217 105.507 23.6673 105.31 22.9665C105.073 22.1352 104.958 21.2736 104.97 20.4089C104.97 19.1253 105.172 18.0259 105.577 17.1108C105.926 16.2642 106.511 15.5375 107.263 15.019C108.008 14.5316 108.882 14.281 109.771 14.2998C110.346 14.2928 110.917 14.39 111.457 14.5869C111.942 14.7661 112.384 15.0454 112.755 15.4068C113.112 15.7549 113.386 16.1785 113.559 16.6466H113.711L113.82 14.5212H116.418V26.2981H113.82L113.711 24.1513H113.559C113.306 24.8634 112.816 25.4655 112.172 25.8553C111.449 26.2974 110.614 26.5206 109.768 26.4982ZM110.737 24.2399C111.307 24.26 111.871 24.1096 112.356 23.8078C112.786 23.5226 113.126 23.1194 113.336 22.6458C113.561 22.1371 113.673 21.5855 113.667 21.0288V19.7676C113.675 19.2028 113.558 18.6431 113.325 18.1293C113.111 17.6583 112.767 17.2588 112.335 16.978C111.876 16.6914 111.344 16.5455 110.804 16.5581C110.214 16.5373 109.631 16.697 109.134 17.0162C108.668 17.3414 108.312 17.8001 108.11 18.3323C107.859 18.9965 107.74 19.7034 107.758 20.4135C107.746 21.107 107.864 21.7966 108.107 22.4458C108.301 22.9791 108.65 23.4417 109.108 23.7742C109.589 24.0965 110.159 24.2593 110.737 24.2399Z" fill="white"/>
<path d="M117.374 26.2976V14.5207H119.862L119.994 16.4903H120.082C120.346 15.7371 120.775 15.1945 121.37 14.8627C121.995 14.5237 122.696 14.3523 123.406 14.3649H124.089V16.9774C124.001 16.9774 123.895 16.9774 123.769 16.9667C123.643 16.956 123.509 16.956 123.362 16.956C122.757 16.9363 122.155 17.0531 121.6 17.2981C121.153 17.5088 120.782 17.8533 120.537 18.2844C120.279 18.7662 120.138 19.3024 120.124 19.8495V26.2915L117.374 26.2976Z" fill="white"/>
<path d="M130.718 26.4978C129.528 26.4978 128.519 26.2505 127.69 25.7558C126.861 25.2613 126.198 24.5292 125.785 23.6532C125.327 22.6587 125.101 21.5717 125.125 20.4758C125.125 19.2207 125.345 18.132 125.785 17.2097C126.193 16.3246 126.852 15.5807 127.679 15.0721C128.501 14.5713 129.478 14.3204 130.609 14.3193C131.899 14.3193 132.962 14.6033 133.798 15.1713C134.631 15.7449 135.259 16.5716 135.591 17.5304C135.959 18.5341 136.084 19.6848 135.966 20.9827H127.811C127.791 21.6331 127.915 22.2798 128.174 22.876C128.389 23.3535 128.742 23.7547 129.187 24.0273C129.653 24.2942 130.182 24.4283 130.718 24.4151C131.407 24.4151 131.969 24.2675 132.402 23.9723C132.821 23.6962 133.129 23.2804 133.272 22.7982H135.871C135.77 23.5303 135.464 24.2186 134.99 24.7831C134.5 25.3488 133.88 25.7855 133.184 26.055C132.398 26.3595 131.561 26.5098 130.718 26.4978ZM127.811 19.5016L127.565 19.213H133.532L133.268 19.5184C133.296 18.7957 133.2 18.2058 132.981 17.7487C132.783 17.3154 132.451 16.9581 132.035 16.7303C131.593 16.5014 131.101 16.387 130.604 16.3974C130.097 16.3851 129.596 16.5072 129.151 16.7517C128.73 16.997 128.393 17.3635 128.182 17.8037C127.933 18.3344 127.806 18.9148 127.811 19.5016Z" fill="white"/>
<path fill-rule="evenodd" clip-rule="evenodd" d="M33.1317 16.2645C33.1226 16.2477 32.8523 12.9252 32.8523 12.916C32.6397 14.2551 31.6677 16.8539 31.2364 17.8021C29.0587 22.5492 25.7345 26.4367 21.5674 29.5485C20.2963 30.5034 18.9441 31.3439 17.5263 32.0602L17.1771 32.2358C16.7958 32.8846 16.2578 33.426 15.6129 33.81C15.499 35.0666 15.0176 36.3172 14.398 37.415C14.0579 38.0461 13.6406 38.6319 13.1558 39.1587C14.8625 39.7168 16.6458 40.0023 18.4406 40.0046C23.004 40.0428 26.8704 38.4777 30.0975 35.2361C33.3246 31.9945 34.8659 28.1254 34.8052 23.5539C34.7769 20.891 34.219 18.4612 33.1317 16.2645ZM19.7678 37.6135C24.5044 36.6302 29.487 33.4756 32.3268 25.093C31.0512 32.4801 27.241 36.9157 19.7724 37.6135H19.7678Z" fill="white"/>
<path fill-rule="evenodd" clip-rule="evenodd" d="M29.6708 11.896C29.4576 11.538 29.2202 11.1951 28.96 10.8699L18.149 0L6.60748 11.6044C3.37586 14.8536 1.83142 18.7502 1.88002 23.3401C1.88824 24.3531 1.97916 25.3637 2.15185 26.3618C2.98709 27.6062 5.56419 27.8811 6.93095 27.9773C6.40569 26.5471 6.15774 25.029 6.20049 23.505C6.26883 20.1458 7.49587 17.2447 9.85581 14.875L10.4283 14.2993L14.2082 10.4989L15.8544 8.84376L16.3312 8.36432L18.4968 6.1885L27.0329 14.7635C27.617 15.3467 28.1429 15.986 28.6032 16.6721C29.6404 14.933 30.3541 13.0763 29.6708 11.896Z" fill="white"/>
<path d="M8.63923 28.9663C2.91403 28.7983 0.408309 27.8456 0.874526 23.752C-1.46567 28.0715 1.16458 31.0032 5.60503 31.5009C3.95884 31.3666 2.44782 31.2307 0.267078 29.2503C1.48197 33.831 4.16234 35.6938 8.85487 33.7042C7.26184 34.4371 5.79941 35.0937 2.55868 34.2249C3.22839 36.1183 6.08795 38.1689 8.85184 36.8573C7.88296 37.4818 7.04923 37.468 5.58984 37.6864C7.55342 39.3232 10.0045 40.3737 12.0971 37.5642C11.4107 38.6178 11.0857 38.914 9.39702 39.6683C10.9156 39.7126 12.2384 39.4072 13.6097 36.9611C14.6909 35.0342 15.1739 32.9179 14.2171 31.2032C13.2133 29.4992 11.1267 29.0381 8.63923 28.9663ZM7.2011 29.8748C9.07507 29.7984 10.0136 29.8 11.6051 30.6703C10.2869 30.0626 8.59671 29.8244 7.2011 29.8748Z" fill="white"/>
<path d="M29.8208 1.67969C24.4966 6.47566 28.7107 8.42397 30.4541 11.4319C32.4678 14.9041 26.0668 22.2515 21.5884 25.5985C19.8513 26.9072 17.973 28.0151 15.9893 28.9011C16.7319 29.2508 17.2528 29.8936 17.1191 31.2342C18.4895 30.542 19.7965 29.7296 21.025 28.8065C25.2427 25.657 28.3711 21.8581 30.4101 17.4097C31.081 15.9869 31.6012 14.4972 31.9621 12.9649C32.8429 9.32026 32.7685 5.57632 30.9871 3.96697C33.5217 5.76107 32.9295 10.6853 32.5999 12.1954C38.0138 7.23758 31.8224 3.78069 29.8208 1.67969Z" fill="white"/>
<path d="M13.1069 29.4966C13.7842 29.8829 14.3218 30.3501 14.6499 30.9563C15.0113 31.5365 15.1419 32.2465 15.1358 33.0283C18.1806 31.193 16.211 27.7636 13.1069 29.4966Z" fill="white"/>
</g>
<defs>
<clipPath id="clip0_361_1942">
<rect width="136" height="40" fill="white"/>
</clipPath>
</defs>
</svg>
