<svg width="40" height="40" viewBox="0 0 40 40" fill="none" xmlns="http://www.w3.org/2000/svg">
<rect width="40" height="40" rx="20" fill="#0066CC"/>
<g clip-path="url(#clip0_209_5777)">
<path d="M22.8333 12.5C23.9384 12.5 24.9982 12.939 25.7796 13.7204C26.561 14.5018 27 15.5616 27 16.6667V23.3333C27 24.4384 26.561 25.4982 25.7796 26.2796C24.9982 27.061 23.9384 27.5 22.8333 27.5H16.1667C15.0616 27.5 14.0018 27.061 13.2204 26.2796C12.439 25.4982 12 24.4384 12 23.3333V16.6667C12 15.5616 12.439 14.5018 13.2204 13.7204C14.0018 12.939 15.0616 12.5 16.1667 12.5H22.8333ZM19.5 16.6667C18.6159 16.6667 17.7681 17.0179 17.143 17.643C16.5179 18.2681 16.1667 19.1159 16.1667 20C16.1667 20.8841 16.5179 21.7319 17.143 22.357C17.7681 22.9821 18.6159 23.3333 19.5 23.3333C20.3841 23.3333 21.2319 22.9821 21.857 22.357C22.4821 21.7319 22.8333 20.8841 22.8333 20C22.8333 19.1159 22.4821 18.2681 21.857 17.643C21.2319 17.0179 20.3841 16.6667 19.5 16.6667ZM19.5 18.3333C19.942 18.3333 20.366 18.5089 20.6785 18.8215C20.9911 19.134 21.1667 19.558 21.1667 20C21.1667 20.442 20.9911 20.866 20.6785 21.1785C20.366 21.4911 19.942 21.6667 19.5 21.6667C19.058 21.6667 18.634 21.4911 18.3215 21.1785C18.0089 20.866 17.8333 20.442 17.8333 20C17.8333 19.558 18.0089 19.134 18.3215 18.8215C18.634 18.5089 19.058 18.3333 19.5 18.3333ZM23.25 15.4167C23.029 15.4167 22.817 15.5045 22.6607 15.6607C22.5045 15.817 22.4167 16.029 22.4167 16.25C22.4167 16.471 22.5045 16.683 22.6607 16.8393C22.817 16.9955 23.029 17.0833 23.25 17.0833C23.471 17.0833 23.683 16.9955 23.8393 16.8393C23.9955 16.683 24.0833 16.471 24.0833 16.25C24.0833 16.029 23.9955 15.817 23.8393 15.6607C23.683 15.5045 23.471 15.4167 23.25 15.4167Z" fill="white"/>
</g>
<defs>
<clipPath id="clip0_209_5777">
<rect width="20" height="20" fill="white" transform="translate(9.5 10)"/>
</clipPath>
</defs>
</svg>
