<svg width="16" height="16" viewBox="0 0 16 16" fill="none" xmlns="http://www.w3.org/2000/svg">
<g clip-path="url(#clip0_387_8010)">
<path fill-rule="evenodd" clip-rule="evenodd" d="M9.43976 12.6299L11.9095 11.2862C12.3382 11.0524 12.4985 10.5102 12.2648 10.0815C12.0316 9.65181 11.4898 9.49243 11.0601 9.72525L8.38477 11.1815L9.43976 12.6299Z" fill="#003D7A"/>
<path fill-rule="evenodd" clip-rule="evenodd" d="M9.03676 14.2287L14.2055 11.4171C14.6343 11.1833 14.7946 10.6421 14.5608 10.2124C14.3277 9.78366 13.7858 9.62428 13.3561 9.8571L10.6871 11.309C10.6446 10.9777 10.4161 10.6827 10.0786 10.5737C9.05988 10.2458 8.04113 9.91803 7.02238 9.59053C6.20645 9.32835 5.40832 9.40272 4.65551 9.8121L1.52051 11.5171L3.32332 14.8255L4.4927 14.1896C5.03738 13.8937 5.61582 13.8387 6.20676 14.0293L7.32301 14.389C7.91363 14.5787 8.49207 14.5246 9.03676 14.2287Z" fill="#0066CC"/>
<path fill-rule="evenodd" clip-rule="evenodd" d="M2.66238 10.8962L1.52051 11.5172L3.32332 14.8256L4.4927 14.1897C4.51051 14.18 4.52895 14.1703 4.54676 14.1612L2.66238 10.8962Z" fill="#00A86B"/>
<path fill-rule="evenodd" clip-rule="evenodd" d="M0.358359 11.3819L2.95305 15.8844C3.0168 15.994 3.1593 16.0331 3.27023 15.9694L4.42367 15.305C4.5343 15.2412 4.57242 15.0994 4.50867 14.9887L1.91398 10.4862C1.85023 10.3762 1.70836 10.3375 1.59773 10.4012L0.444297 11.0656C0.333672 11.1294 0.295547 11.2719 0.358359 11.3819Z" fill="#0593FC"/>
<path fill-rule="evenodd" clip-rule="evenodd" d="M11.133 11.0671C11.1987 11.3134 11.1968 11.58 11.1137 11.8396C10.8815 12.559 10.1055 12.9565 9.38554 12.7256L7.10804 11.9921C7.01772 11.9628 6.95554 11.8884 6.94429 11.7937C6.93272 11.699 6.97429 11.6121 7.05585 11.5615L7.0621 11.5571C7.12397 11.519 7.19241 11.5112 7.26241 11.5331L9.5346 12.264C9.9996 12.4137 10.5027 12.1559 10.6524 11.6918C10.693 11.5643 10.7037 11.434 10.6877 11.309L11.133 11.0671Z" fill="#0052A3"/>
<path fill-rule="evenodd" clip-rule="evenodd" d="M5.72656 11.039C6.13125 11.1693 6.53625 11.2993 6.94 11.4296C7.80469 11.7077 8.66906 11.9858 9.53375 12.264C9.99875 12.4137 10.5019 12.1558 10.6516 11.6918C10.8012 11.2268 10.5434 10.7237 10.0784 10.574L7.70719 9.81116L5.72656 11.039Z" fill="#0066CC"/>
<path fill-rule="evenodd" clip-rule="evenodd" d="M0.358359 11.3819L2.95305 15.8844C2.95586 15.8878 2.95742 15.8906 2.9593 15.894L0.546172 11.7069C0.482422 11.5972 0.521484 11.4544 0.631172 11.3906L1.78555 10.7262C1.89273 10.665 2.0293 10.6987 2.09555 10.8015L1.91398 10.4862C1.85023 10.3762 1.70836 10.3375 1.59773 10.4012L0.444297 11.0656C0.333672 11.1294 0.295547 11.2719 0.358359 11.3819Z" fill="#0584E3"/>
<path fill-rule="evenodd" clip-rule="evenodd" d="M5.64011 3.05244C6.16011 5.57182 7.21948 8.029 9.76261 9.02744C9.80073 9.0415 9.83792 9.0415 9.87605 9.02744C12.4182 8.029 13.4789 5.57182 13.9985 3.05244C14.0145 2.97713 13.9729 2.90275 13.901 2.87619C12.9267 2.51307 12.1648 1.71588 11.8495 0.719941C11.8292 0.654316 11.7707 0.611816 11.7017 0.611816H7.93698C7.86792 0.611816 7.80948 0.654316 7.78917 0.719941C7.47386 1.71557 6.71105 2.51275 5.73761 2.87619C5.66573 2.90244 5.62417 2.97713 5.64011 3.05244Z" fill="#0593FC"/>
<path fill-rule="evenodd" clip-rule="evenodd" d="M9.81977 6.59656C11.036 6.59656 12.0282 5.60437 12.0282 4.38812C12.0282 3.17188 11.036 2.17969 9.81977 2.17969C8.60352 2.17969 7.61133 3.17188 7.61133 4.38812C7.61133 5.60437 8.60352 6.59656 9.81977 6.59656Z" fill="white"/>
<path d="M10.6634 3.60158C10.7643 3.50064 10.9275 3.50064 11.0284 3.60158C11.1293 3.70252 11.1293 3.86564 11.0284 3.96658L9.81934 5.17471C9.71934 5.27564 9.55527 5.27564 9.45434 5.17471L8.61184 4.33221C8.5109 4.23127 8.5109 4.06814 8.61184 3.96721C8.71277 3.86627 8.8759 3.86627 8.97684 3.96721L9.63684 4.62721L10.6634 3.60158Z" fill="#00A86B"/>
<path fill-rule="evenodd" clip-rule="evenodd" d="M14.7931 1.74313C14.9287 1.33219 15.2537 1.00688 15.6646 0.871563C15.2537 0.735938 14.9284 0.411875 14.7931 0C14.6575 0.411875 14.3325 0.73625 13.9215 0.871563C14.3325 1.00688 14.6575 1.33219 14.7931 1.74313ZM4.84621 7.93313C4.98184 7.52125 5.30684 7.19688 5.71777 7.06156C5.30684 6.92594 4.98152 6.60094 4.84621 6.19C4.71152 6.60094 4.38652 6.92625 3.97559 7.06156C4.38621 7.19719 4.71152 7.52125 4.84621 7.93313Z" fill="#00A86B"/>
<path d="M4.66148 0.611899C4.66148 0.469399 4.7768 0.353149 4.9193 0.353149C5.0618 0.353149 5.17711 0.469087 5.17711 0.611899V1.04784H5.61305C5.75555 1.04784 5.8718 1.16315 5.8718 1.30565C5.8718 1.44815 5.75586 1.56346 5.61305 1.56346H5.17711V1.9994C5.17711 2.1419 5.0618 2.25721 4.9193 2.25721C4.7768 2.25721 4.66148 2.1419 4.66148 1.9994V1.56315H4.22555C4.08305 1.56315 3.9668 1.44815 3.9668 1.30534C3.9668 1.16284 4.08273 1.04752 4.22555 1.04752H4.66148V0.611899ZM15.4137 6.78002C15.5562 6.78002 15.6715 6.89534 15.6715 7.03784C15.6715 7.18034 15.5562 7.29565 15.4137 7.29565H14.9777V7.73159C14.9777 7.87409 14.8624 7.99034 14.7199 7.99034C14.5774 7.99034 14.4612 7.8744 14.4612 7.73159V7.29565H14.0262C13.8837 7.29565 13.7674 7.18034 13.7674 7.03784C13.7674 6.89534 13.8834 6.78002 14.0262 6.78002H14.4612V6.34409C14.4612 6.20159 14.5771 6.08534 14.7199 6.08534C14.8627 6.08534 14.9777 6.20127 14.9777 6.34409V6.78002H15.4137Z" fill="#00A86B"/>
<path fill-rule="evenodd" clip-rule="evenodd" d="M9.99258 6.59031C8.85414 6.50187 7.95789 5.54938 7.95789 4.38812C7.95789 3.22687 8.85445 2.27469 9.99258 2.18688C9.93602 2.1825 9.8782 2.17969 9.81977 2.17969C8.60008 2.17969 7.61133 3.16812 7.61133 4.38812C7.61133 5.60781 8.59977 6.59656 9.81977 6.59656C9.8782 6.59656 9.9357 6.59469 9.99258 6.59031Z" fill="#D9D9D9"/>
</g>
<defs>
<clipPath id="clip0_387_8010">
<rect width="16" height="16" fill="white"/>
</clipPath>
</defs>
</svg>
