<svg width="40" height="40" viewBox="0 0 40 40" fill="none" xmlns="http://www.w3.org/2000/svg">
<rect width="40" height="40" rx="20" fill="#0066CC"/>
<g clip-path="url(#clip0_209_5782)">
<path fill-rule="evenodd" clip-rule="evenodd" d="M24.5 12.5C25.163 12.5 25.7989 12.7634 26.2678 13.2322C26.7366 13.7011 27 14.337 27 15V25C27 25.663 26.7366 26.2989 26.2678 26.7678C25.7989 27.2366 25.163 27.5 24.5 27.5H14.5C13.837 27.5 13.2011 27.2366 12.7322 26.7678C12.2634 26.2989 12 25.663 12 25V15C12 14.337 12.2634 13.7011 12.7322 13.2322C13.2011 12.7634 13.837 12.5 14.5 12.5H24.5ZM16.1667 18.3333C15.9457 18.3333 15.7337 18.4211 15.5774 18.5774C15.4211 18.7337 15.3333 18.9457 15.3333 19.1667V23.3333C15.3333 23.5543 15.4211 23.7663 15.5774 23.9226C15.7337 24.0789 15.9457 24.1667 16.1667 24.1667C16.3877 24.1667 16.5996 24.0789 16.7559 23.9226C16.9122 23.7663 17 23.5543 17 23.3333V19.1667C17 18.9457 16.9122 18.7337 16.7559 18.5774C16.5996 18.4211 16.3877 18.3333 16.1667 18.3333ZM18.6667 17.5C18.4457 17.5 18.2337 17.5878 18.0774 17.7441C17.9211 17.9004 17.8333 18.1123 17.8333 18.3333V23.3333C17.8333 23.5543 17.9211 23.7663 18.0774 23.9226C18.2337 24.0789 18.4457 24.1667 18.6667 24.1667C18.8877 24.1667 19.0996 24.0789 19.2559 23.9226C19.4122 23.7663 19.5 23.5543 19.5 23.3333V20.2833C19.7542 19.9967 20.1833 19.66 20.6608 19.4558C20.9383 19.3375 21.3558 19.2892 21.6458 19.3808C21.742 19.4052 21.8277 19.4602 21.89 19.5375C21.9333 19.5958 22 19.7258 22 20V23.3333C22 23.5543 22.0878 23.7663 22.2441 23.9226C22.4004 24.0789 22.6123 24.1667 22.8333 24.1667C23.0543 24.1667 23.2663 24.0789 23.4226 23.9226C23.5789 23.7663 23.6667 23.5543 23.6667 23.3333V20C23.6667 19.4417 23.525 18.945 23.23 18.5467C22.9585 18.1855 22.5786 17.9206 22.1458 17.7908C21.3942 17.555 20.5617 17.6858 20.0058 17.9242C19.8277 18.0004 19.6544 18.0872 19.4867 18.1842C19.4517 17.9922 19.3505 17.8185 19.2007 17.6935C19.0508 17.5684 18.8618 17.5 18.6667 17.5ZM16.1667 15.8333C15.9457 15.8333 15.7337 15.9211 15.5774 16.0774C15.4211 16.2337 15.3333 16.4457 15.3333 16.6667C15.3333 16.8877 15.4211 17.0996 15.5774 17.2559C15.7337 17.4122 15.9457 17.5 16.1667 17.5C16.3877 17.5 16.5996 17.4122 16.7559 17.2559C16.9122 17.0996 17 16.8877 17 16.6667C17 16.4457 16.9122 16.2337 16.7559 16.0774C16.5996 15.9211 16.3877 15.8333 16.1667 15.8333Z" fill="white"/>
</g>
<defs>
<clipPath id="clip0_209_5782">
<rect width="20" height="20" fill="white" transform="translate(9.5 10)"/>
</clipPath>
</defs>
</svg>
