<svg width="136" height="40" viewBox="0 0 136 40" fill="none" xmlns="http://www.w3.org/2000/svg">
<path d="M47.1558 38.3097C46.6546 38.3172 46.1566 38.228 45.6888 38.0471C45.2627 37.88 44.8774 37.6228 44.5589 37.2928C44.235 36.9538 43.9874 36.5487 43.833 36.1049C43.4964 35.0963 43.4964 34.0048 43.833 32.9962C43.9895 32.5552 44.2368 32.1525 44.5589 31.8143C44.8763 31.4863 45.2601 31.2306 45.6842 31.0646C46.6673 30.7013 47.7493 30.7171 48.7215 31.1089C49.1662 31.2995 49.5566 31.5987 49.8574 31.9792C50.1549 32.3661 50.348 32.8237 50.4178 33.3076H49.5476C49.4843 32.9742 49.3374 32.6626 49.1209 32.4022C48.8967 32.1353 48.6146 31.9237 48.2962 31.7838C47.9329 31.627 47.5405 31.55 47.1451 31.5578C46.6438 31.5441 46.1484 31.6693 45.7131 31.9197C45.3146 32.1658 44.9967 32.5242 44.7989 32.9503C44.5701 33.4538 44.4589 34.0033 44.4739 34.5566C44.4676 34.9817 44.5318 35.4048 44.6637 35.8087C44.7768 36.1575 44.9591 36.4796 45.1998 36.7554C45.4313 37.0145 45.7185 37.2171 46.0396 37.3478C46.3945 37.4899 46.7738 37.5599 47.1558 37.5539C47.5521 37.5614 47.9456 37.486 48.3114 37.3325C48.6348 37.1962 48.92 36.9823 49.1421 36.7096C49.3613 36.4363 49.5048 36.1098 49.5582 35.7629H50.4284C50.3721 36.2535 50.1853 36.7197 49.8878 37.1127C49.588 37.4995 49.1956 37.8037 48.7473 37.9967C48.2447 38.2127 47.7023 38.3194 47.1558 38.3097Z" fill="#2B68B3"/>
<path d="M51.6191 38.2181V30.889H52.4301V38.2181H51.6191Z" fill="#2B68B3"/>
<path d="M55.9622 38.3097C55.5109 38.3224 55.0652 38.207 54.676 37.9769C54.3156 37.7517 54.0313 37.4222 53.8605 37.0317C53.6656 36.5813 53.5703 36.0937 53.581 35.6026C53.5693 35.1035 53.6647 34.6077 53.8605 34.149C54.0284 33.7584 54.3067 33.4261 54.6608 33.1931C55.0426 32.9582 55.4845 32.8409 55.9319 32.8557C56.3988 32.8365 56.8603 32.9629 57.2531 33.2176C57.6058 33.4636 57.8717 33.8159 58.0124 34.2238C58.1754 34.7018 58.2349 35.2094 58.187 35.7125H54.3662C54.3617 36.087 54.4314 36.4586 54.5712 36.8058C54.6836 37.0755 54.8761 37.3037 55.1224 37.4593C55.3756 37.6077 55.6647 37.6827 55.9577 37.6761C56.2844 37.6893 56.6068 37.5973 56.878 37.4135C57.1144 37.2457 57.2847 36.9998 57.3594 36.7187H58.1399C58.0881 37.0364 57.9517 37.334 57.7451 37.5799C57.5391 37.8198 57.2786 38.0062 56.9858 38.1235C56.6597 38.2512 56.3122 38.3144 55.9622 38.3097ZM54.3814 35.256L54.2918 35.1353H57.4809L57.3913 35.2758C57.4106 34.9273 57.3525 34.5789 57.2212 34.2558C57.1155 34.0133 56.9343 33.8118 56.7048 33.6817C56.4663 33.5539 56.1991 33.4898 55.9288 33.4954C55.6488 33.4885 55.3722 33.5582 55.1285 33.697C54.897 33.8362 54.7112 34.0406 54.594 34.2849C54.4552 34.5875 54.3827 34.9166 54.3814 35.2498V35.256Z" fill="#2B68B3"/>
<path d="M61.2772 38.3097C60.9711 38.3127 60.6683 38.2475 60.3903 38.1189C60.1212 37.9917 59.8837 37.8061 59.6948 37.5753C59.492 37.3219 59.3408 37.0308 59.2498 36.7187C59.1424 36.3463 59.0912 35.9597 59.0979 35.572C59.0846 35.0698 59.1783 34.5705 59.3728 34.1077C59.533 33.7299 59.7962 33.4054 60.1321 33.1717C60.4718 32.9506 60.8695 32.8368 61.2741 32.845C61.556 32.8438 61.8357 32.8955 62.0987 32.9977C62.337 33.087 62.5538 33.226 62.735 33.4054C62.9084 33.5802 63.0384 33.7936 63.1147 34.0283H63.1739L63.2043 32.9427H63.9742V38.2181H63.2043L63.1739 37.1218H63.1238C62.9987 37.4757 62.7612 37.7783 62.448 37.983C62.0995 38.2082 61.6913 38.3221 61.2772 38.3097ZM61.5368 37.6257C61.8487 37.6362 62.1563 37.5498 62.4176 37.3783C62.6542 37.2187 62.844 36.9983 62.9674 36.7401C63.0947 36.4766 63.1597 36.1871 63.1572 35.8942V35.2498C63.1602 34.952 63.0936 34.6575 62.9628 34.3902C62.8393 34.1333 62.6495 33.9144 62.4131 33.7565C62.1505 33.6001 61.8506 33.5183 61.5454 33.5199C61.2403 33.5215 60.9412 33.6065 60.6803 33.7657C60.4291 33.9409 60.2343 34.1861 60.12 34.4711C59.8608 35.1803 59.8608 35.9591 60.12 36.6683C60.2319 36.9547 60.4252 37.2016 60.6758 37.3783C60.9307 37.5477 61.2314 37.6341 61.5368 37.6257Z" fill="#2B68B3"/>
<path d="M65.4902 38.2181V32.9366H66.2602L66.2905 34.0329H66.3513C66.4936 33.6648 66.7538 33.3548 67.0909 33.1519C67.4216 32.9558 67.7989 32.8535 68.1827 32.8557C68.4408 32.8521 68.6976 32.8929 68.9421 32.9763C69.1736 33.0549 69.3822 33.1897 69.5495 33.3687C69.7305 33.5699 69.8653 33.8086 69.9443 34.068C70.0453 34.4055 70.0925 34.757 70.0841 35.1094V38.2181H69.2731V35.2712C69.2836 34.9399 69.2348 34.6094 69.1288 34.2955C69.0486 34.0624 68.8937 33.8626 68.6884 33.7275C68.4579 33.5947 68.1946 33.5301 67.9291 33.5412C67.6253 33.535 67.3263 33.6189 67.0696 33.7825C66.8238 33.9422 66.6263 34.1667 66.4986 34.4314C66.3608 34.722 66.2921 35.0409 66.2981 35.3628V38.2181H65.4902Z" fill="#2B68B3"/>
<path d="M71.9156 32.0296C71.7808 32.0366 71.6484 31.9918 71.5451 31.9044C71.4984 31.8621 71.4616 31.8099 71.4374 31.7515C71.4132 31.6932 71.4023 31.6301 71.4054 31.567C71.402 31.5047 71.4129 31.4425 71.4371 31.385C71.4613 31.3276 71.4982 31.2765 71.5451 31.2356C71.6497 31.1511 71.7816 31.1081 71.9156 31.115C72.0463 31.1093 72.1744 31.1523 72.2756 31.2356C72.3224 31.2765 72.3594 31.3276 72.3836 31.385C72.4078 31.4425 72.4186 31.5047 72.4153 31.567C72.4183 31.6301 72.4074 31.6932 72.3832 31.7515C72.3591 31.8099 72.3223 31.8621 72.2756 31.9044C72.1757 31.9905 72.0471 32.0352 71.9156 32.0296ZM71.495 38.2181V32.9366H72.3059V38.2181H71.495Z" fill="#2B68B3"/>
<path d="M73.8262 38.2181V32.9366H74.5976L74.628 34.0329H74.6872C74.8301 33.6647 75.0909 33.3547 75.4283 33.1519C75.7584 32.9557 76.1353 32.8533 76.5187 32.8557C76.7768 32.8523 77.0335 32.8931 77.278 32.9763C77.5067 33.0562 77.7126 33.1908 77.8778 33.3687C78.0594 33.5698 78.1947 33.8085 78.2742 34.068C78.3745 34.4057 78.4216 34.7571 78.4139 35.1094V38.2181H77.6015V35.2712C77.6096 34.9395 77.5582 34.6089 77.4496 34.2955C77.3704 34.0623 77.2159 33.8624 77.0107 33.7275C76.7801 33.5947 76.5169 33.5301 76.2514 33.5413C75.9471 33.5352 75.6477 33.6191 75.3903 33.7825C75.1449 33.9422 74.9479 34.1667 74.8209 34.4314C74.683 34.722 74.6144 35.0409 74.6204 35.3628V38.2181H73.8262Z" fill="#2B68B3"/>
<path d="M81.9128 40.0046C81.5583 40.0108 81.2056 39.9513 80.8725 39.829C80.5912 39.7249 80.3412 39.5498 80.1466 39.3205C79.9628 39.0964 79.8463 38.8241 79.811 38.5357H80.6022C80.626 38.7079 80.703 38.8681 80.8224 38.9938C80.9491 39.126 81.1052 39.226 81.278 39.2854C81.4878 39.3563 81.7082 39.3904 81.9295 39.3862C82.2319 39.3964 82.5331 39.3444 82.8149 39.2335C83.0381 39.1423 83.2221 38.9747 83.3342 38.7602C83.4545 38.5043 83.5113 38.223 83.4998 37.9402V36.9203H83.4603C83.347 37.256 83.1224 37.5423 82.824 37.731C82.5284 37.9076 82.1954 38.0114 81.8523 38.034C81.5092 38.0565 81.1657 37.9972 80.8498 37.8608C80.5917 37.7437 80.364 37.5681 80.1846 37.3478C79.9883 37.1059 79.8417 36.8272 79.7533 36.5279C79.6491 36.1756 79.5979 35.8097 79.6014 35.4422C79.5943 34.9634 79.6891 34.4887 79.8794 34.0497C80.0352 33.6871 80.2907 33.3767 80.6159 33.1549C80.9409 32.946 81.3206 32.8396 81.7063 32.8496C82.0979 32.8413 82.4835 32.9474 82.8164 33.1549C83.1203 33.3434 83.3503 33.6313 83.4679 33.9703H83.518L83.5483 32.9549H84.3183V37.8059C84.3358 38.2424 84.2356 38.6755 84.0282 39.0594C83.8376 39.3817 83.5475 39.6326 83.2021 39.774C82.7917 39.9356 82.3535 40.014 81.9128 40.0046ZM81.9735 37.3585C82.2673 37.367 82.5573 37.2901 82.8088 37.1371C83.0353 36.9933 83.2161 36.7871 83.3297 36.5431C83.4471 36.2914 83.5067 36.0164 83.5043 35.7384V35.1277C83.507 34.8506 83.4457 34.5767 83.3251 34.3276C83.2051 34.0774 83.0153 33.8676 82.7788 33.724C82.5423 33.5803 82.2694 33.5088 81.9933 33.5183C81.7004 33.5105 81.4116 33.5891 81.1626 33.7443C80.9217 33.9043 80.7352 34.1345 80.628 34.4039C80.4965 34.7332 80.4334 35.086 80.4428 35.4407C80.434 35.7919 80.4971 36.1411 80.628 36.4668C80.7346 36.7349 80.9194 36.9643 81.158 37.1249C81.4012 37.2809 81.6851 37.3606 81.9735 37.3539V37.3585Z" fill="#2B68B3"/>
<path d="M90.6296 38.3097C90.0881 38.327 89.5496 38.2227 89.0533 38.0044C88.6634 37.8272 88.3369 37.5341 88.1178 37.1646C87.9068 36.7881 87.7964 36.363 87.7974 35.9308H88.6782C88.6775 36.244 88.7554 36.5522 88.9044 36.8271C89.0507 37.0847 89.2746 37.289 89.5438 37.4104C89.8903 37.557 90.2645 37.6258 90.6402 37.6119C90.9756 37.6183 91.3098 37.5709 91.6304 37.4715C91.8863 37.3941 92.1143 37.2434 92.2864 37.0378C92.449 36.8253 92.5323 36.5622 92.5218 36.2942C92.5285 36.092 92.4906 35.8907 92.4109 35.7049C92.3335 35.5424 92.2125 35.4049 92.0616 35.3079C91.8676 35.1855 91.6568 35.0924 91.436 35.0315C91.1255 34.9418 90.8094 34.8729 90.4899 34.8254C90.1198 34.7547 89.7538 34.664 89.3934 34.5536C89.1122 34.4696 88.8457 34.3418 88.6038 34.1749C88.4001 34.0335 88.2364 33.8415 88.1284 33.6176C88.015 33.3683 87.96 33.0961 87.9675 32.8221C87.9573 32.4429 88.0633 32.0698 88.2712 31.7533C88.4931 31.4363 88.8025 31.1916 89.1611 31.0494C89.6072 30.8737 90.0838 30.7895 90.5628 30.802C91.0452 30.7886 91.5248 30.8797 91.969 31.0692C92.327 31.2255 92.6328 31.4821 92.8498 31.8082C93.0587 32.1429 93.1678 32.5308 93.1642 32.9259H92.3016C92.2989 32.6403 92.2157 32.3612 92.0616 32.1212C91.9108 31.9034 91.6996 31.7351 91.4542 31.6372C90.8651 31.4277 90.223 31.4245 89.6319 31.6281C89.4042 31.7117 89.2047 31.8583 89.0563 32.051C88.9186 32.2442 88.8481 32.4776 88.8558 32.7152C88.8422 32.9523 88.9115 33.1868 89.0518 33.3779C89.2258 33.5675 89.4495 33.704 89.6972 33.7718C90.0949 33.8945 90.5009 33.9884 90.9121 34.0528C91.2293 34.104 91.5432 34.1744 91.8521 34.2635C92.1358 34.344 92.406 34.4665 92.6539 34.6269C92.8878 34.7825 93.0785 34.9952 93.2082 35.2453C93.3571 35.5573 93.428 35.9011 93.4147 36.2469C93.4219 36.6305 93.3099 37.0068 93.0943 37.3234C92.8561 37.6505 92.5292 37.9017 92.1528 38.0471C91.6675 38.2356 91.1496 38.3249 90.6296 38.3097Z" fill="#2B68B3"/>
<path d="M96.7845 38.3097C96.3332 38.3223 95.8874 38.207 95.4982 37.9769C95.1379 37.7517 94.8536 37.4222 94.6827 37.0317C94.4879 36.5813 94.3925 36.0937 94.4033 35.6026C94.3916 35.1035 94.4869 34.6077 94.6827 34.1489C94.8507 33.758 95.1296 33.4255 95.4846 33.1931C95.8802 32.9673 96.3282 32.8506 96.7832 32.8549C97.2382 32.8592 97.6839 32.9843 98.0753 33.2175C98.4281 33.4636 98.694 33.8159 98.8346 34.2238C98.9976 34.7018 99.0572 35.2094 99.0093 35.7125H95.193C95.1882 36.0871 95.2585 36.4589 95.3995 36.8057C95.5109 37.0757 95.703 37.3041 95.9493 37.4593C96.2024 37.6077 96.4915 37.6827 96.7845 37.6761C97.1117 37.6891 97.4345 37.5971 97.7063 37.4134C97.9418 37.2451 98.1116 36.9994 98.1862 36.7187H98.9668C98.9149 37.0364 98.7785 37.3339 98.5719 37.5799C98.3663 37.8202 98.1058 38.0067 97.8126 38.1234C97.485 38.2514 97.1359 38.3147 96.7845 38.3097ZM95.2036 35.2559L95.114 35.1353H98.3031L98.2135 35.2758C98.2329 34.9273 98.1748 34.5789 98.0434 34.2558C97.9378 34.0132 97.7566 33.8118 97.5271 33.6817C97.289 33.5541 97.0224 33.49 96.7526 33.4954C96.4721 33.4885 96.195 33.5582 95.9508 33.697C95.7193 33.8362 95.5335 34.0406 95.4162 34.2848C95.2774 34.5875 95.2049 34.9166 95.2036 35.2498V35.2559Z" fill="#2B68B3"/>
<path d="M100.137 38.2181V32.9366H100.859L100.909 33.9123H100.948C101.053 33.5895 101.268 33.3145 101.556 33.1366C101.844 32.9557 102.177 32.8613 102.517 32.8648C102.578 32.8648 102.634 32.8648 102.687 32.8648C102.738 32.8673 102.789 32.8724 102.839 32.8801V33.6542C102.792 33.6542 102.742 33.642 102.687 33.639C102.632 33.6359 102.578 33.639 102.517 33.639C102.24 33.632 101.966 33.6906 101.717 33.81C101.496 33.9183 101.31 34.0871 101.18 34.2971C101.043 34.5321 100.963 34.7962 100.945 35.0681V38.2181H100.137Z" fill="#2B68B3"/>
<path d="M105.231 38.2181L103.33 32.9366H104.201L105.222 36.0347L105.721 37.5753H105.762L106.262 36.0347L107.283 32.9366H108.154L106.253 38.2181H105.231Z" fill="#2B68B3"/>
<path d="M109.545 32.0296C109.41 32.0366 109.278 31.9918 109.174 31.9044C109.128 31.8621 109.091 31.8099 109.067 31.7515C109.043 31.6932 109.032 31.6301 109.035 31.567C109.031 31.5047 109.042 31.4425 109.066 31.385C109.091 31.3276 109.128 31.2765 109.174 31.2356C109.279 31.1511 109.411 31.1081 109.545 31.115C109.676 31.1096 109.804 31.1525 109.905 31.2356C109.952 31.2765 109.989 31.3276 110.013 31.385C110.037 31.4425 110.048 31.5047 110.045 31.567C110.048 31.6301 110.037 31.6932 110.013 31.7515C109.988 31.8099 109.952 31.8621 109.905 31.9044C109.805 31.9902 109.676 32.0349 109.545 32.0296ZM109.124 38.2181V32.9366H109.935V38.2181H109.124Z" fill="#2B68B3"/>
<path d="M113.658 38.3097C113.303 38.3145 112.951 38.2475 112.622 38.1128C112.32 37.9884 112.049 37.7999 111.827 37.56C111.601 37.3125 111.427 37.0216 111.316 36.705C111.192 36.3442 111.131 35.9644 111.137 35.5827C111.132 35.2045 111.192 34.8283 111.316 34.4711C111.428 34.1508 111.606 33.8575 111.837 33.61C112.065 33.3678 112.341 33.1772 112.648 33.0511C112.979 32.9178 113.332 32.8514 113.688 32.8557C114.064 32.8489 114.436 32.9245 114.779 33.0771C115.087 33.2146 115.356 33.429 115.559 33.7C115.762 33.9736 115.886 34.297 115.921 34.636H115.13C115.087 34.4108 114.987 34.2005 114.839 34.0253C114.701 33.8645 114.526 33.7403 114.329 33.6634C114.119 33.5809 113.894 33.5399 113.669 33.5428C113.419 33.5406 113.171 33.5927 112.943 33.6955C112.735 33.7913 112.552 33.9346 112.408 34.1138C112.256 34.304 112.142 34.5224 112.073 34.7567C111.992 35.0276 111.953 35.3092 111.957 35.5919C111.947 35.9659 112.021 36.3375 112.173 36.679C112.301 36.9633 112.507 37.2045 112.768 37.3738C113.011 37.5149 113.283 37.5966 113.563 37.6122C113.843 37.6279 114.123 37.577 114.379 37.4638C114.579 37.3684 114.755 37.2291 114.894 37.0562C115.034 36.8766 115.126 36.6635 115.16 36.4378H115.95C115.917 36.794 115.79 37.1348 115.581 37.4241C115.371 37.7071 115.094 37.932 114.774 38.0776C114.424 38.2366 114.043 38.3158 113.658 38.3097Z" fill="#2B68B3"/>
<path d="M119.093 38.3097C118.641 38.3226 118.195 38.2072 117.806 37.9769C117.446 37.7517 117.162 37.4222 116.991 37.0317C116.795 36.5814 116.7 36.0938 116.71 35.6026C116.699 35.1034 116.794 34.6076 116.991 34.149C117.159 33.7584 117.437 33.4261 117.791 33.1931C118.187 32.9679 118.635 32.8516 119.091 32.8559C119.546 32.8602 119.992 32.9849 120.383 33.2176C120.735 33.4645 121.001 33.8165 121.143 34.2238C121.305 34.702 121.365 35.2094 121.317 35.7125H117.501C117.495 36.0871 117.565 36.459 117.706 36.8058C117.819 37.0755 118.011 37.3037 118.257 37.4593C118.51 37.6079 118.8 37.683 119.093 37.6761C119.419 37.6893 119.742 37.5973 120.013 37.4135C120.249 37.2456 120.419 36.9997 120.493 36.7187H121.275C121.222 37.0365 121.086 37.3341 120.878 37.5799C120.673 37.8202 120.412 38.0068 120.119 38.1235C119.792 38.2516 119.444 38.3148 119.093 38.3097ZM117.512 35.256L117.421 35.1353H120.61L120.519 35.2758C120.539 34.9273 120.481 34.5787 120.348 34.2558C120.243 34.0135 120.063 33.812 119.834 33.6817C119.595 33.5541 119.328 33.49 119.058 33.4954C118.778 33.4885 118.501 33.5582 118.257 33.697C118.025 33.8361 117.839 34.0405 117.721 34.2849C117.584 34.5877 117.512 34.9168 117.512 35.2498V35.256Z" fill="#2B68B3"/>
<path d="M124.326 38.325C124.028 38.3292 123.731 38.2886 123.445 38.2044C123.203 38.1338 122.976 38.0195 122.775 37.8669C122.593 37.7295 122.446 37.5505 122.346 37.3447C122.243 37.1329 122.188 36.9009 122.185 36.6653H122.985C122.991 36.8764 123.059 37.0809 123.181 37.2531C123.302 37.4153 123.469 37.5367 123.661 37.6013C123.881 37.6774 124.114 37.7146 124.347 37.7112C124.675 37.7322 125.001 37.6518 125.283 37.4806C125.388 37.4082 125.473 37.31 125.529 37.1954C125.586 37.0808 125.613 36.9535 125.608 36.8256C125.618 36.6486 125.569 36.4731 125.468 36.3278C125.353 36.1965 125.203 36.1007 125.037 36.0515C124.789 35.9719 124.535 35.9147 124.277 35.8805C123.91 35.8349 123.548 35.7504 123.197 35.6285C122.941 35.543 122.714 35.3838 122.546 35.1704C122.391 34.9418 122.313 34.6685 122.326 34.3917C122.32 34.1013 122.408 33.8169 122.576 33.581C122.756 33.3393 122.998 33.1514 123.276 33.0374C123.61 32.9004 123.967 32.8338 124.327 32.8419C124.687 32.8324 125.045 32.8989 125.378 33.0374C125.655 33.1547 125.894 33.3465 126.069 33.5916C126.24 33.8418 126.331 34.1386 126.329 34.4421H125.539C125.536 34.2395 125.475 34.0419 125.365 33.8726C125.258 33.7306 125.111 33.6241 124.944 33.5672C124.742 33.4992 124.531 33.4667 124.318 33.471C124.01 33.4529 123.705 33.5342 123.447 33.7031C123.35 33.7722 123.272 33.864 123.219 33.9705C123.166 34.077 123.14 34.1949 123.143 34.3139C123.135 34.483 123.189 34.6492 123.295 34.7811C123.42 34.9146 123.582 35.009 123.759 35.0529C124.02 35.1273 124.286 35.1829 124.555 35.2193C124.902 35.2613 125.242 35.3423 125.571 35.4606C125.828 35.548 126.053 35.7114 126.217 35.9293C126.375 36.1753 126.452 36.4656 126.437 36.7584C126.446 37.063 126.355 37.3622 126.177 37.6089C125.987 37.8528 125.732 38.0375 125.442 38.1418C125.085 38.273 124.706 38.3351 124.326 38.325Z" fill="#2B68B3"/>
<path d="M43.584 12.7053V10.1584H56.3541V12.7053H43.584ZM48.4724 26.2946V12.3999H51.4003V26.2946H48.4724Z" fill="#2B68B3"/>
<path d="M57.3037 26.2977V14.5208H59.7912L59.9233 16.4904H60.0114C60.2757 15.7372 60.7054 15.1946 61.3007 14.8628C61.9256 14.5234 62.6271 14.3519 63.3372 14.365H64.019V16.9775C63.931 16.9775 63.8247 16.9775 63.7001 16.9668C63.5756 16.9561 63.4389 16.9561 63.2931 16.9561C62.6879 16.9362 62.0859 17.0531 61.5315 17.2982C61.0839 17.508 60.7124 17.8527 60.4685 18.2845C60.2102 18.7663 60.0687 19.3025 60.0554 19.8496V26.2916L57.3037 26.2977Z" fill="#2B68B3"/>
<path d="M69.1655 26.4977C68.3768 26.5199 67.5958 26.3369 66.8982 25.9663C66.2616 25.6068 65.7561 25.052 65.4555 24.3829C65.1245 23.6826 64.9594 22.8301 64.9605 21.8254V14.5208H67.7122V21.0955C67.6978 21.6714 67.7873 22.2451 67.9764 22.7889C68.1301 23.2219 68.4148 23.5956 68.7904 23.8577C69.2188 24.1264 69.7181 24.2579 70.2225 24.2348C70.7656 24.2472 71.2996 24.0927 71.7532 23.792C72.1867 23.4948 72.5325 23.0854 72.754 22.6072C72.9964 22.0814 73.1169 21.5071 73.1063 20.9276V14.5146H75.8596V26.2916H73.2172L73.1063 24.0119H72.9742C72.7076 24.7723 72.1912 25.4185 71.5103 25.8442C70.8069 26.283 69.9932 26.5098 69.1655 26.4977Z" fill="#2B68B3"/>
<path d="M82.4776 26.4977C81.288 26.4977 80.2787 26.2503 79.4495 25.7556C78.6205 25.2612 77.9574 24.5291 77.5452 23.6531C77.0865 22.6586 76.8605 21.5716 76.8846 20.4756C76.8846 19.2205 77.1048 18.1319 77.5452 17.2096C77.9523 16.3245 78.6113 15.5806 79.4389 15.072C80.2599 14.5711 81.2359 14.3202 82.3668 14.3192C83.6586 14.3192 84.7216 14.6032 85.5559 15.1712C86.389 15.7451 87.018 16.5716 87.3509 17.5303C87.7184 18.5339 87.8434 19.6847 87.726 20.9826H79.5755C79.5553 21.6329 79.6793 22.2797 79.9385 22.8759C80.1533 23.3534 80.5063 23.7546 80.9514 24.0272C81.4171 24.2941 81.9463 24.4282 82.4822 24.415C83.1716 24.415 83.733 24.2674 84.1663 23.9722C84.5848 23.696 84.893 23.2802 85.0365 22.798H87.6242C87.5233 23.5301 87.2178 24.2184 86.7434 24.783C86.2539 25.3492 85.634 25.7864 84.9378 26.0564C84.1531 26.3596 83.3181 26.5094 82.4776 26.4977ZM79.5755 19.5015L79.3341 19.2129H85.3007L85.0365 19.5183C85.0659 18.7955 84.9702 18.2057 84.7495 17.7486C84.5518 17.3153 84.2199 16.958 83.8034 16.7302C83.361 16.5011 82.8688 16.3867 82.3713 16.3973C81.8648 16.3852 81.3641 16.5074 80.9195 16.7515C80.4992 16.9969 80.1617 17.3634 79.9506 17.8036C79.7 18.3339 79.5718 18.9143 79.5755 19.5015Z" fill="#2B68B3"/>
<path d="M96.743 26.4977C95.6279 26.5127 94.5196 26.3211 93.4734 25.9327C92.5282 25.5754 91.669 25.0207 90.9525 24.3051C90.2308 23.5694 89.6786 22.6833 89.3352 21.7094C88.9448 20.5893 88.7545 19.4086 88.7733 18.2219C88.754 17.0392 88.9442 15.8624 89.3352 14.7467C89.679 13.773 90.2311 12.8869 90.9525 12.151C91.6687 11.4354 92.528 10.8811 93.4734 10.5249C94.5194 10.1358 95.6279 9.94423 96.743 9.95992C97.983 9.93784 99.2136 10.1793 100.354 10.6684C101.366 11.1038 102.253 11.7861 102.936 12.6534C103.607 13.5222 104.027 14.5595 104.151 15.6522H101.17C101.05 15.0399 100.778 14.468 100.38 13.9894C99.9675 13.5055 99.4472 13.1262 98.8615 12.8824C98.1912 12.6061 97.4719 12.4705 96.7476 12.4839C95.8274 12.4579 94.9173 12.6816 94.1128 13.1313C93.3545 13.5851 92.7516 14.2605 92.3846 15.0674C91.9725 15.9235 91.767 16.9714 91.768 18.2112C91.7547 19.0513 91.8736 19.8882 92.1203 20.6909C92.3241 21.3598 92.665 21.9782 93.1211 22.5064C93.5499 22.99 94.0857 23.3656 94.6853 23.6027C95.3417 23.8559 96.04 23.9813 96.743 23.9722C97.4603 23.9841 98.1724 23.8485 98.8357 23.5737C99.4291 23.3262 99.9577 22.9442 100.38 22.4575C100.79 21.9794 101.063 21.3993 101.173 20.778H104.145C104.03 21.8708 103.615 22.9098 102.945 23.7783C102.264 24.6516 101.376 25.3401 100.363 25.7816C99.2204 26.2746 97.9866 26.5187 96.743 26.4977Z" fill="#2B68B3"/>
<path d="M109.767 26.4977C109.092 26.5066 108.423 26.3664 107.808 26.087C107.216 25.812 106.697 25.4028 106.289 24.8914C105.839 24.3213 105.505 23.6668 105.308 22.966C105.071 22.1348 104.957 21.2731 104.968 20.4085C104.968 19.1248 105.171 18.0255 105.576 17.1104C105.924 16.2637 106.51 15.5371 107.261 15.0185C108.007 14.5311 108.881 14.2806 109.77 14.2994C110.344 14.2923 110.915 14.3896 111.456 14.5864C111.941 14.7657 112.383 15.045 112.754 15.4064C113.11 15.7545 113.385 16.178 113.557 16.6462H113.709L113.819 14.5208H116.417V26.2977H113.819L113.709 24.1509H113.557C113.305 24.8629 112.815 25.465 112.171 25.8549C111.448 26.297 110.613 26.5201 109.767 26.4977ZM110.736 24.2394C111.306 24.2595 111.869 24.1091 112.355 23.8073C112.785 23.5222 113.125 23.1189 113.334 22.6454C113.559 22.1366 113.672 21.5851 113.665 21.0284V19.7672C113.674 19.2023 113.557 18.6426 113.323 18.1288C113.11 17.6578 112.766 17.2583 112.333 16.9775C111.875 16.691 111.343 16.5451 110.803 16.5576C110.212 16.5368 109.63 16.6966 109.132 17.0157C108.667 17.3409 108.31 17.7996 108.109 18.3319C107.858 18.996 107.738 19.7029 107.756 20.413C107.744 21.1066 107.863 21.7961 108.106 22.4453C108.3 22.9786 108.648 23.4412 109.106 23.7737C109.588 24.0961 110.158 24.2589 110.736 24.2394Z" fill="#2B68B3"/>
<path d="M117.373 26.2977V14.5208H119.86L119.992 16.4904H120.08C120.344 15.7372 120.774 15.1946 121.368 14.8628C121.993 14.5238 122.694 14.3524 123.405 14.365H124.088V16.9775C124 16.9775 123.894 16.9775 123.767 16.9668C123.641 16.9561 123.508 16.9561 123.36 16.9561C122.755 16.9364 122.153 17.0532 121.599 17.2982C121.152 17.5089 120.781 17.8534 120.536 18.2845C120.278 18.7663 120.136 19.3025 120.123 19.8496V26.2916L117.373 26.2977Z" fill="#2B68B3"/>
<path d="M130.716 26.4977C129.527 26.4977 128.517 26.2503 127.688 25.7556C126.859 25.2612 126.196 24.5291 125.784 23.6531C125.325 22.6586 125.099 21.5716 125.123 20.4756C125.123 19.2205 125.344 18.1319 125.784 17.2096C126.191 16.3245 126.85 15.5806 127.678 15.072C128.5 14.5711 129.476 14.3202 130.607 14.3192C131.898 14.3192 132.961 14.6032 133.796 15.1712C134.629 15.7447 135.258 16.5715 135.59 17.5303C135.957 18.5339 136.082 19.6847 135.965 20.9826H127.81C127.789 21.6329 127.913 22.2797 128.173 22.8759C128.387 23.3534 128.741 23.7546 129.186 24.0272C129.651 24.2941 130.181 24.4282 130.716 24.415C131.406 24.415 131.967 24.2674 132.401 23.9722C132.819 23.696 133.127 23.2802 133.271 22.798H135.869C135.768 23.5301 135.463 24.2184 134.988 24.783C134.499 25.3487 133.879 25.7854 133.183 26.0549C132.396 26.3594 131.559 26.5097 130.716 26.4977ZM127.81 19.5015L127.564 19.2129H133.53L133.266 19.5183C133.295 18.7955 133.199 18.2057 132.979 17.7486C132.781 17.3153 132.45 16.958 132.033 16.7302C131.591 16.5013 131.099 16.3869 130.603 16.3973C130.096 16.3849 129.594 16.5071 129.149 16.7515C128.729 16.9969 128.391 17.3634 128.18 17.8036C127.931 18.3343 127.805 18.9147 127.81 19.5015Z" fill="#2B68B3"/>
<path fill-rule="evenodd" clip-rule="evenodd" d="M33.1302 16.2645C33.1211 16.2477 32.8508 12.9251 32.8508 12.916C32.6382 14.2551 31.6663 16.8538 31.235 17.802C29.0573 22.5492 25.733 26.4366 21.5659 29.5484C20.2949 30.5033 18.9426 31.3438 17.5249 32.0602L17.1756 32.2358C16.7943 32.8845 16.2563 33.426 15.6114 33.81C15.4975 35.0666 15.0161 36.3171 14.3965 37.415C14.0564 38.0461 13.6391 38.6319 13.1543 39.1587C14.8611 39.7168 16.6443 40.0022 18.4391 40.0046C23.0025 40.0428 26.869 38.4777 30.096 35.2361C33.3231 31.9945 34.8645 28.1254 34.8037 23.5538C34.7754 20.8909 34.2176 18.4612 33.1302 16.2645ZM19.7664 37.6135C24.5029 36.6302 29.4855 33.4756 32.3254 25.093C31.0497 32.4801 27.2395 36.9157 19.7709 37.6135H19.7664Z" fill="#2B68B3"/>
<path fill-rule="evenodd" clip-rule="evenodd" d="M29.6693 11.896C29.4562 11.538 29.2187 11.1951 28.9586 10.87L18.1475 5.72205e-06L6.60602 11.6044C3.37439 14.8536 1.82996 18.7502 1.87855 23.3401C1.88678 24.3531 1.97769 25.3637 2.15039 26.3618C2.98563 27.6062 5.56272 27.8811 6.92948 27.9773C6.40422 26.5471 6.15627 25.029 6.19903 23.505C6.26736 20.1458 7.49441 17.2447 9.85434 14.875L10.4269 14.2994L14.2067 10.4989L15.8529 8.84377L16.3297 8.36432L18.4953 6.1885L27.0315 14.7635C27.6155 15.3468 28.1414 15.986 28.6017 16.6721C29.6389 14.933 30.3527 13.0763 29.6693 11.896Z" fill="#2B68B3"/>
<path d="M8.63776 28.9667C2.91257 28.7987 0.406844 27.8459 0.873061 23.7523C-1.46713 28.0719 1.16312 31.0036 5.60356 31.5013C3.95738 31.367 2.44635 31.2311 0.265613 29.2507C1.48051 33.8314 4.16087 35.6942 8.85341 33.7046C7.26038 34.4375 5.79795 35.0941 2.55721 34.2253C3.22692 36.1186 6.08648 38.1693 8.85037 36.8577C7.88149 37.4822 7.04777 37.4684 5.58838 37.6868C7.55195 39.3236 10.003 40.3741 12.0957 37.5646C11.4092 38.6182 11.0843 38.9144 9.39556 39.6687C10.9142 39.7129 12.2369 39.4076 13.6082 36.9615C14.6895 35.0346 15.1724 32.9183 14.2157 31.2036C13.2118 29.4996 11.1253 29.0384 8.63776 28.9667ZM7.19963 29.8752C9.07361 29.7988 10.0121 29.8004 11.6036 30.6707C10.2855 30.063 8.59524 29.8248 7.19963 29.8752Z" fill="#0FAA6D"/>
<path d="M29.8194 1.67959C24.4951 6.47556 28.7093 8.42387 30.4526 11.4319C32.4663 14.904 26.0654 22.2514 21.5869 25.5984C19.8498 26.9071 17.9716 28.015 15.9878 28.901C16.7304 29.2507 17.2513 29.8935 17.1176 31.2341C18.4881 30.5419 19.7951 29.7295 21.0235 28.8064C25.2413 25.6569 28.3696 21.858 30.4086 17.4096C31.0795 15.9868 31.5997 14.4971 31.9606 12.9649C32.8414 9.32016 32.767 5.57622 30.9857 3.96687C33.5203 5.76097 32.928 10.6852 32.5985 12.1953C38.0123 7.23748 31.8209 3.78059 29.8194 1.67959Z" fill="#0FAA6D"/>
<path d="M13.1055 29.4965C13.7828 29.8828 14.3204 30.35 14.6484 30.9562C15.0098 31.5364 15.1404 32.2464 15.1343 33.0282C18.1792 31.1929 16.2095 27.7635 13.1055 29.4965Z" fill="#0FAA6D"/>
</svg>
