<svg width="16" height="16" viewBox="0 0 16 16" fill="none" xmlns="http://www.w3.org/2000/svg">
<path d="M5.75046 9.00021C5.32353 8.99996 4.90074 9.08387 4.50627 9.24713C4.11179 9.4104 3.75337 9.64981 3.45148 9.9517C3.1496 10.2536 2.91018 10.612 2.74692 11.0065C2.58366 11.401 2.49975 11.8237 2.5 12.2507V15.2488C2.49988 15.2817 2.50623 15.3143 2.5187 15.3447C2.53117 15.3752 2.54951 15.4028 2.57267 15.4262C2.59584 15.4495 2.62337 15.4681 2.6537 15.4808C2.68404 15.4935 2.71657 15.5001 2.74946 15.5002H13.2501C13.283 15.5001 13.3156 15.4935 13.3459 15.4808C13.3762 15.4681 13.4038 15.4495 13.4269 15.4262C13.4501 15.4028 13.4684 15.3752 13.4809 15.3447C13.4934 15.3143 13.4997 15.2817 13.4996 15.2488V12.2497C13.4998 11.8228 13.4159 11.4 13.2527 11.0055C13.0894 10.6111 12.85 10.2526 12.5481 9.95075C12.2462 9.64887 11.8878 9.40945 11.4933 9.24619C11.0988 9.08293 10.6761 8.99902 10.2491 8.99927L5.75046 9.00021Z" fill="#0066CC"/>
<path d="M2.5 13.9996V15.2488C2.5 15.3867 2.6115 15.4992 2.74945 15.5001H13.2501C13.389 15.4992 13.5005 15.3867 13.4996 15.2488V13.9996H2.5Z" fill="#E6F2FF"/>
<path d="M6.50095 7.49873V9.25058C6.50095 9.31672 6.5274 9.38098 6.57465 9.42728C6.57465 9.42728 7.1397 9.99989 8.00145 9.99989C8.86131 9.99989 9.42825 9.42728 9.42825 9.42728C9.47421 9.38001 9.49968 9.31651 9.49912 9.25058V7.49873H6.50095ZM10.4223 4.99569C10.2705 5.00276 10.1239 5.05327 9.99991 5.14121V6.99983C10.6207 6.99983 11.25 6.51887 11.25 5.74972C11.2501 5.74657 11.2501 5.74342 11.25 5.74028C11.2417 5.57294 11.1798 5.41273 11.0734 5.28326C10.9671 5.15379 10.822 5.06192 10.6595 5.02121C10.5818 5.00078 10.5025 4.99218 10.4223 4.99569ZM5.57872 4.99569C5.49851 4.99203 5.41822 5.00064 5.34061 5.02121C5.17809 5.06192 5.03296 5.15379 4.92663 5.28326C4.8203 5.41273 4.75839 5.57294 4.75004 5.74028C4.74999 5.74342 4.74999 5.74657 4.75004 5.74972C4.75004 6.51982 5.37935 6.99983 5.9992 6.99983V5.13932C5.87545 5.05277 5.72959 5.00233 5.57872 4.99569Z" fill="#B8D4F2"/>
<path d="M5.75 4.75V6.24956C5.76206 6.83813 6.00435 7.39854 6.42487 7.81053C6.84538 8.22251 7.41063 8.45326 7.99934 8.45326C8.58804 8.45326 9.15329 8.22251 9.57381 7.81053C9.99432 7.39854 10.2366 6.83813 10.2487 6.24956V4.75H5.75Z" fill="#E6F2FF"/>
<path d="M8.00064 0.999756C7.27138 0.999756 6.57199 1.28945 6.05633 1.80511C5.54067 2.32077 5.25098 3.02016 5.25098 3.74942H10.7503C10.7503 3.02016 10.4606 2.32077 9.94494 1.80511C9.42928 1.28945 8.72989 0.999756 8.00064 0.999756Z" fill="#8AB6E5"/>
<path d="M5.49931 4.99855C5.08827 4.99855 4.75 4.66122 4.75 4.24924C4.75 3.83727 5.08827 3.49994 5.49931 3.49994H10.5007C10.9117 3.49994 11.25 3.83821 11.25 4.24924C11.25 4.66028 10.9117 4.99855 10.5007 4.99855H5.49931ZM7.74911 0.499879C7.5474 0.499539 7.35325 0.576658 7.20674 0.715316C7.12849 0.787579 7.06909 0.877863 7.03368 0.978316C6.99828 1.07877 6.98794 1.18635 7.00359 1.29171L7.25304 2.78937C7.26246 2.84805 7.29244 2.90146 7.33762 2.94006C7.3828 2.97866 7.44023 2.99994 7.49966 3.00009H8.50031C8.55957 2.99972 8.61678 2.97834 8.66177 2.93976C8.70675 2.90117 8.73659 2.84789 8.74598 2.78937L8.99449 1.29832C9.01323 1.19229 9.00487 1.08325 8.97018 0.981325C8.93549 0.879398 8.87559 0.787894 8.79606 0.715316C8.6477 0.576705 8.452 0.499981 8.24897 0.500824L7.74911 0.499879Z" fill="#5C97D7"/>
<path d="M5.74931 9.00024C5.49135 9.00024 5.24095 9.03332 5 9.09001V11.7499H6.2501V9.00024H5.74931ZM9.75002 9.00024V11.7499H11.0001V9.09001C10.7541 9.03095 10.502 9.00082 10.2489 9.00024H9.75002Z" fill="#00A86B"/>
<path d="M5.25632 11.4995C5.21314 11.4998 5.17076 11.5112 5.13332 11.5327C5.09589 11.5543 5.06469 11.5851 5.04277 11.6223L4.28591 12.8772C4.26253 12.916 4.25013 12.9604 4.25 13.0057V15.5002H11.7506V13.0057C11.7503 12.9603 11.7375 12.9159 11.7138 12.8772L10.9588 11.6223C10.9367 11.5851 10.9054 11.5541 10.8678 11.5326C10.8302 11.5111 10.7876 11.4997 10.7443 11.4995H5.25632Z" fill="#008656"/>
<path d="M6.50116 13.5008C6.3024 13.5016 6.11195 13.5807 5.97114 13.7209C5.83033 13.8612 5.75051 14.0514 5.74902 14.2501V15.5002H10.2505V14.2492C10.249 14.0506 10.1694 13.8606 10.0288 13.7203C9.88814 13.5801 9.69793 13.5009 9.49933 13.4999L6.50116 13.5008Z" fill="#00A86B"/>
</svg>
