<svg width="16" height="16" viewBox="0 0 16 16" fill="none" xmlns="http://www.w3.org/2000/svg">
<path d="M0.75 9.58984H3.3135V14.4378H0.75V9.58984Z" fill="#66BB6A"/>
<path d="M3.3135 10.0901V9.59009H0.75V14.4376H1.25V12.1533C1.24997 11.8823 1.30332 11.614 1.407 11.3636C1.51069 11.1132 1.66268 10.8857 1.8543 10.6941C2.04591 10.5024 2.2734 10.3504 2.52377 10.2467C2.77415 10.143 3.0425 10.0896 3.3135 10.0896V10.0901Z" fill="#42A047"/>
<path d="M3.31348 13.7018C3.59273 13.8793 8.84673 15.2501 8.84673 15.2501L14.585 12.6946C14.8446 12.5788 15.0505 12.3687 15.161 12.1069C15.2716 11.845 15.2785 11.5509 15.1804 11.2841C15.0823 11.0174 14.8864 10.7978 14.6326 10.67C14.3787 10.5422 14.0857 10.5156 13.813 10.5956L9.63373 11.8236C9.63375 11.4934 9.52737 11.1719 9.33036 10.9069C9.13335 10.6419 8.8562 10.4475 8.53998 10.3523L6.00398 9.58984L3.31348 10.5036V13.7018Z" fill="#0052A3"/>
<path d="M15.085 12.1945L11.3025 13.879C10.0315 14.4454 8.60449 14.5578 7.26048 14.1975L6.64098 14.0305C4.97198 13.5785 3.81348 12.063 3.81348 10.3338C3.81348 8.60451 3.31348 10.5038 3.31348 10.5038V13.7018C3.59273 13.8793 8.84673 15.25 8.84673 15.25L14.585 12.6945C14.8213 12.5885 15.0131 12.403 15.127 12.1703C15.1122 12.1778 15.1 12.1878 15.085 12.1945Z" fill="#0066CC"/>
<path d="M10.2428 11.6425C9.87529 12.1075 9.17529 12.7425 8.11529 12.7425C7.81529 12.7425 7.49029 12.6925 7.13529 12.575C7.00279 12.53 6.93279 12.39 6.97529 12.2575C7.02029 12.1275 7.16029 12.0575 7.29279 12.1C8.41529 12.4725 9.17279 12.045 9.61779 11.6075C9.62779 11.6775 9.63279 11.75 9.63279 11.8225L10.2428 11.6425Z" fill="#0066CC"/>
<path d="M2.27149 10.3301H1.79199C1.72569 10.3301 1.6621 10.3564 1.61522 10.4033C1.56833 10.4502 1.54199 10.5138 1.54199 10.5801C1.54199 10.6464 1.56833 10.71 1.61522 10.7568C1.6621 10.8037 1.72569 10.8301 1.79199 10.8301H2.27149C2.3378 10.8301 2.40138 10.8037 2.44827 10.7568C2.49515 10.71 2.52149 10.6464 2.52149 10.5801C2.52149 10.5138 2.49515 10.4502 2.44827 10.4033C2.40138 10.3564 2.3378 10.3301 2.27149 10.3301ZM4.95374 1.03081L4.75999 1.62681C4.73349 1.70839 4.68185 1.77949 4.61247 1.82992C4.54309 1.88036 4.45952 1.90753 4.37374 1.90756H3.74699C3.35349 1.90756 3.18999 2.41106 3.50824 2.64231L4.01524 3.01056C4.15774 3.11406 4.21724 3.29731 4.16274 3.46481L3.96924 4.06081C3.84749 4.43506 4.27574 4.74631 4.59424 4.51506L5.10124 4.14656C5.17064 4.09615 5.25422 4.069 5.33999 4.069C5.42577 4.069 5.50934 4.09615 5.57874 4.14656L6.08574 4.51506C6.40424 4.74631 6.83249 4.43506 6.71074 4.06081L6.51724 3.46481C6.46274 3.29731 6.52224 3.11406 6.66474 3.01056L7.17174 2.64231C7.48999 2.41106 7.32674 1.90731 6.93299 1.90731H6.30624C6.2205 1.9073 6.13695 1.88016 6.06757 1.82977C5.99819 1.77939 5.94653 1.70834 5.91999 1.62681L5.72624 1.03081C5.60474 0.65656 5.07524 0.65656 4.95374 1.03081Z" fill="#0052A3"/>
<path d="M6.0852 4.51509L5.5777 4.14759C5.50907 4.09646 5.42578 4.06884 5.3402 4.06884C5.25462 4.06884 5.17132 4.09646 5.1027 4.14759L4.5952 4.51509C4.2752 4.74509 3.8477 4.43509 3.9702 4.06009L4.1627 3.46509C4.2177 3.29759 4.1577 3.11509 4.0152 3.01009L3.5077 2.64259C3.1902 2.41009 3.3527 1.90759 3.7477 1.90759H4.3752C4.3952 1.90759 4.4127 1.90509 4.4327 1.90259C4.8252 2.44259 5.4677 3.03759 6.5002 3.37509C6.5027 3.40509 6.5077 3.43509 6.5177 3.46509L6.7102 4.06009C6.8327 4.43509 6.4052 4.74509 6.0852 4.51509Z" fill="#0066CC"/>
<path d="M2.36478 4.8925L2.17103 5.4885C2.14453 5.57008 2.09289 5.64118 2.02351 5.69162C1.95412 5.74205 1.87056 5.76923 1.78478 5.76925H1.15778C0.764531 5.76925 0.600781 6.27275 0.919281 6.504L1.42628 6.87225C1.56878 6.97575 1.62828 7.159 1.57378 7.3265L1.38003 7.9225C1.25853 8.29675 1.68678 8.608 2.00503 8.37675L2.51228 8.00825C2.58168 7.95784 2.66526 7.93069 2.75103 7.93069C2.83681 7.93069 2.92038 7.95784 2.98978 8.00825L3.49678 8.37675C3.81503 8.608 4.24328 8.29675 4.12178 7.9225L3.92803 7.3265C3.87378 7.159 3.93328 6.97575 4.07553 6.87225L4.58278 6.504C4.90103 6.27275 4.73753 5.769 4.34403 5.769H3.71728C3.63154 5.76899 3.54799 5.74185 3.47861 5.69147C3.40923 5.64108 3.35757 5.57004 3.33103 5.4885L3.13728 4.8925C3.01553 4.51825 2.48628 4.51825 2.36478 4.8925Z" fill="#0052A3"/>
<path d="M3.49535 8.37678L2.98785 8.00928C2.91923 7.95815 2.83593 7.93053 2.75035 7.93053C2.66477 7.93053 2.58148 7.95815 2.51285 8.00928L2.00535 8.37678C1.68535 8.60678 1.25785 8.29678 1.38035 7.92178L1.57285 7.32678C1.62785 7.15928 1.56785 6.97678 1.42535 6.87178L0.917854 6.50428C0.600354 6.27178 0.762854 5.76928 1.15785 5.76928H1.78535C1.80535 5.76928 1.82285 5.76678 1.84285 5.76428C2.23535 6.30428 2.87785 6.89928 3.91035 7.23678C3.91285 7.26678 3.91785 7.29678 3.92785 7.32678L4.12035 7.92178C4.24285 8.29678 3.81535 8.60678 3.49535 8.37678Z" fill="#0066CC"/>
<path d="M7.61478 4.8925L7.42103 5.4885C7.39453 5.57008 7.34289 5.64118 7.27351 5.69162C7.20412 5.74205 7.12056 5.76923 7.03478 5.76925H6.40778C6.01453 5.76925 5.85078 6.27275 6.16928 6.504L6.67628 6.87225C6.81878 6.97575 6.87828 7.159 6.82378 7.3265L6.63003 7.9225C6.50853 8.29675 6.93678 8.608 7.25503 8.37675L7.76228 8.00825C7.83168 7.95784 7.91526 7.93069 8.00103 7.93069C8.08681 7.93069 8.17038 7.95784 8.23978 8.00825L8.74678 8.37675C9.06503 8.608 9.49328 8.29675 9.37178 7.9225L9.17803 7.3265C9.12378 7.159 9.18328 6.97575 9.32553 6.87225L9.83278 6.504C10.151 6.27275 9.98753 5.769 9.59403 5.769H8.96728C8.88154 5.76899 8.79799 5.74185 8.72861 5.69147C8.65923 5.64108 8.60757 5.57004 8.58103 5.4885L8.38728 4.8925C8.26553 4.51825 7.73628 4.51825 7.61478 4.8925Z" fill="#0052A3"/>
<path d="M8.74535 8.37678L8.23785 8.00928C8.16923 7.95815 8.08593 7.93053 8.00035 7.93053C7.91477 7.93053 7.83148 7.95815 7.76285 8.00928L7.25535 8.37678C6.93535 8.60678 6.50785 8.29678 6.63035 7.92178L6.82285 7.32678C6.87785 7.15928 6.81785 6.97678 6.67535 6.87178L6.16785 6.50428C5.85035 6.27178 6.01285 5.76928 6.40785 5.76928H7.03535C7.05535 5.76928 7.07285 5.76678 7.09285 5.76428C7.48535 6.30428 8.12785 6.89928 9.16035 7.23678C9.16285 7.26678 9.16785 7.29678 9.17785 7.32678L9.37035 7.92178C9.49285 8.29678 9.06535 8.60678 8.74535 8.37678Z" fill="#0066CC"/>
<path d="M12.8648 4.8925L12.671 5.4885C12.6445 5.57008 12.5929 5.64118 12.5235 5.69162C12.4541 5.74205 12.3706 5.76923 12.2848 5.76925H11.6578C11.2645 5.76925 11.1008 6.27275 11.4193 6.504L11.9263 6.87225C12.0688 6.97575 12.1283 7.159 12.0738 7.3265L11.88 7.9225C11.7585 8.29675 12.1868 8.608 12.505 8.37675L13.0123 8.00825C13.0817 7.95784 13.1653 7.93069 13.251 7.93069C13.3368 7.93069 13.4204 7.95784 13.4898 8.00825L13.9968 8.37675C14.315 8.608 14.7433 8.29675 14.6218 7.9225L14.428 7.3265C14.3738 7.159 14.4333 6.97575 14.5755 6.87225L15.0828 6.504C15.401 6.27275 15.2375 5.769 14.844 5.769H14.2173C14.1315 5.76899 14.048 5.74185 13.9786 5.69147C13.9092 5.64108 13.8576 5.57004 13.831 5.4885L13.6373 4.8925C13.5155 4.51825 12.9863 4.51825 12.8648 4.8925Z" fill="#0052A3"/>
<path d="M13.9954 8.37678L13.4879 8.00928C13.4192 7.95815 13.3359 7.93053 13.2504 7.93053C13.1648 7.93053 13.0815 7.95815 13.0129 8.00928L12.5054 8.37678C12.1854 8.60678 11.7579 8.29678 11.8804 7.92178L12.0729 7.32678C12.1279 7.15928 12.0679 6.97678 11.9254 6.87178L11.4179 6.50428C11.1004 6.27178 11.2629 5.76928 11.6579 5.76928H12.2854C12.3054 5.76928 12.3229 5.76678 12.3429 5.76428C12.7354 6.30428 13.3779 6.89928 14.4104 7.23678C14.4129 7.26678 14.4179 7.29678 14.4279 7.32678L14.6204 7.92178C14.7429 8.29678 14.3154 8.60678 13.9954 8.37678Z" fill="#0066CC"/>
<path d="M10.274 1.03081L10.0803 1.62681C10.0538 1.70839 10.0021 1.77949 9.93275 1.82992C9.86337 1.88036 9.7798 1.90753 9.69403 1.90756H9.06703C8.67378 1.90756 8.51002 2.41106 8.82827 2.64231L9.33552 3.01056C9.47802 3.11406 9.53752 3.29731 9.48302 3.46481L9.28928 4.06081C9.16778 4.43506 9.59603 4.74631 9.91428 4.51506L10.4215 4.14656C10.4909 4.09615 10.5745 4.069 10.6603 4.069C10.7461 4.069 10.8296 4.09615 10.899 4.14656L11.406 4.51506C11.7243 4.74631 12.1525 4.43506 12.031 4.06081L11.8373 3.46481C11.783 3.29731 11.8425 3.11406 11.9848 3.01056L12.492 2.64231C12.8103 2.41106 12.6468 1.90731 12.2533 1.90731H11.6265C11.5408 1.9073 11.4572 1.88016 11.3879 1.82977C11.3185 1.77939 11.2668 1.70834 11.2403 1.62681L11.0465 1.03081C10.9248 0.65656 10.3955 0.65656 10.274 1.03081Z" fill="#0052A3"/>
<path d="M11.4055 4.51509L10.898 4.14759C10.8294 4.09646 10.7461 4.06884 10.6605 4.06884C10.5749 4.06884 10.4916 4.09646 10.423 4.14759L9.91551 4.51509C9.59551 4.74509 9.16801 4.43509 9.29051 4.06009L9.48301 3.46509C9.53801 3.29759 9.47801 3.11509 9.33551 3.01009L8.82801 2.64259C8.51051 2.41009 8.67301 1.90759 9.06801 1.90759H9.69551C9.71551 1.90759 9.73301 1.90509 9.75301 1.90259C10.1455 2.44259 10.788 3.03759 11.8205 3.37509C11.823 3.40509 11.828 3.43509 11.838 3.46509L12.0305 4.06009C12.153 4.43509 11.7255 4.74509 11.4055 4.51509Z" fill="#0066CC"/>
</svg>
