<svg width="29" height="25" viewBox="0 0 29 25" fill="none" xmlns="http://www.w3.org/2000/svg">
<path d="M23.0755 5.77891C23.0755 5.77891 24.5055 7.21514 24.5148 7.82052C24.5241 8.4259 23.0539 9.84978 23.0539 9.84978C23.0539 9.84978 24.4808 8.37957 25.0831 8.38884C25.6885 8.3981 27.1247 9.82816 27.1247 9.82816C27.1247 9.82816 25.6947 8.39193 25.6854 7.78655C25.6761 7.18117 27.1464 5.75729 27.1464 5.75729C27.1464 5.75729 25.7194 7.2275 25.1171 7.21823C24.5148 7.20896 23.0755 5.77891 23.0755 5.77891ZM0.018532 11.9779C0.018532 11.9779 1.06559 13.0311 1.07177 13.4728C1.07795 13.9145 0 14.9584 0 14.9584C0 14.9584 1.04397 13.8836 1.48565 13.8867C1.92733 13.8929 2.98057 14.9399 2.98057 14.9399C2.98057 14.9399 1.93351 13.8867 1.92733 13.445C1.92116 13.0033 2.9991 11.9593 2.9991 11.9593C2.9991 11.9593 1.95513 13.0342 1.51345 13.0311C1.07177 13.0249 0.018532 11.9779 0.018532 11.9779ZM25.1171 18.0842C25.1171 18.0842 26.1642 19.1374 26.1703 19.5791C26.1765 20.0208 25.0986 21.0648 25.0986 21.0648C25.0986 21.0648 26.1425 19.9899 26.5842 19.993C27.0259 19.9961 28.0791 21.0462 28.0791 21.0462C28.0791 21.0462 27.0321 19.993 27.0259 19.5513C27.0197 19.1096 28.0977 18.0657 28.0977 18.0657C28.0977 18.0657 27.0537 19.1405 26.612 19.1374C26.1703 19.1312 25.1171 18.0842 25.1171 18.0842ZM8.20969 0.058685C8.20969 0.058685 12.2373 4.10176 12.262 5.80053C12.2867 7.4993 8.14792 11.5115 8.14792 11.5115C8.14792 11.5115 12.1601 7.37575 13.8589 7.40046C15.5576 7.42517 19.6007 11.4528 19.6007 11.4528C19.6007 11.4528 15.5731 7.40973 15.5484 5.71096C15.5237 4.01219 19.6625 0 19.6625 0C19.6625 0 15.6503 4.13573 13.9515 4.11102C12.2528 4.08632 8.20969 0.058685 8.20969 0.058685ZM4.7442 17.2657C4.7442 17.2657 7.43135 19.9621 7.44679 21.0987C7.46224 22.2354 4.70096 24.9102 4.70096 24.9102C4.70096 24.9102 7.37884 22.152 8.51239 22.1674C9.64593 22.1829 12.3454 24.87 12.3454 24.87C12.3454 24.87 9.65828 22.1736 9.64284 21.037C9.6274 19.9003 12.3887 17.2255 12.3887 17.2255C12.3887 17.2255 9.71079 19.9837 8.57725 19.9683C7.4437 19.9528 4.7442 17.2657 4.7442 17.2657Z" fill="#92E5C7"/>
</svg>
