<svg width="136" height="40" viewBox="0 0 136 40" fill="none" xmlns="http://www.w3.org/2000/svg">
<g clip-path="url(#clip0_361_2569)">
<path d="M47.1575 38.3098C46.6563 38.3172 46.1583 38.2281 45.6905 38.0472C45.2644 37.8801 44.8791 37.6229 44.5606 37.2929C44.2367 36.9539 43.9891 36.5487 43.8347 36.105C43.4981 35.0964 43.4981 34.0048 43.8347 32.9962C43.9912 32.5553 44.2386 32.1525 44.5606 31.8144C44.878 31.4864 45.2618 31.2307 45.6859 31.0647C46.669 30.7014 47.751 30.7172 48.7232 31.109C49.1679 31.2996 49.5583 31.5987 49.8591 31.9793C50.1566 32.3662 50.3497 32.8238 50.4195 33.3077H49.5493C49.486 32.9743 49.3391 32.6626 49.1226 32.4023C48.8985 32.1353 48.6163 31.9238 48.298 31.7839C47.9346 31.6271 47.5422 31.5501 47.1468 31.5579C46.6455 31.5442 46.1501 31.6693 45.7148 31.9198C45.3163 32.1659 44.9984 32.5243 44.8006 32.9504C44.5718 33.4539 44.4606 34.0034 44.4756 34.5567C44.4693 34.9818 44.5335 35.4049 44.6654 35.8088C44.7785 36.1576 44.9609 36.4797 45.2015 36.7554C45.433 37.0146 45.7202 37.2172 46.0413 37.3479C46.3962 37.49 46.7755 37.56 47.1575 37.554C47.5538 37.5614 47.9473 37.4861 48.3131 37.3326C48.6365 37.1962 48.9217 36.9824 49.1438 36.7096C49.363 36.4364 49.5065 36.1098 49.5599 35.763H50.4301C50.3738 36.2535 50.187 36.7198 49.8895 37.1127C49.5897 37.4996 49.1974 37.8038 48.749 37.9968C48.2464 38.2128 47.704 38.3195 47.1575 38.3098Z" fill="white"/>
<path d="M51.6206 38.2182V30.8892H52.4315V38.2182H51.6206Z" fill="white"/>
<path d="M55.9639 38.31C55.5126 38.3226 55.0669 38.2072 54.6777 37.9771C54.3173 37.7519 54.033 37.4224 53.8622 37.032C53.6673 36.5815 53.572 36.0939 53.5827 35.6028C53.5711 35.1037 53.6664 34.6079 53.8622 34.1492C54.0301 33.7587 54.3084 33.4263 54.6625 33.1933C55.0443 32.9585 55.4862 32.8412 55.9336 32.8559C56.4005 32.8367 56.862 32.9631 57.2548 33.2178C57.6075 33.4638 57.8734 33.8162 58.0141 34.224C58.1771 34.7021 58.2366 35.2096 58.1887 35.7127H54.3679C54.3634 36.0872 54.4331 36.4588 54.5729 36.806C54.6853 37.0757 54.8778 37.3039 55.1241 37.4595C55.3773 37.6079 55.6664 37.683 55.9594 37.6763C56.2861 37.6895 56.6086 37.5975 56.8797 37.4137C57.1161 37.2459 57.2864 37 57.3611 36.7189H58.1416C58.0898 37.0366 57.9534 37.3342 57.7468 37.5801C57.5408 37.82 57.2803 38.0064 56.9875 38.1237C56.6614 38.2514 56.3139 38.3147 55.9639 38.31ZM54.3831 35.2562L54.2935 35.1356H57.4826L57.393 35.276C57.4123 34.9276 57.3542 34.5791 57.2229 34.2561C57.1172 34.0135 56.936 33.812 56.7065 33.682C56.468 33.5542 56.2008 33.49 55.9305 33.4957C55.6505 33.4887 55.3739 33.5584 55.1302 33.6972C54.8987 33.8365 54.7129 34.0408 54.5957 34.2851C54.4569 34.5877 54.3844 34.9168 54.3831 35.2501V35.2562Z" fill="white"/>
<path d="M61.2791 38.3099C60.9731 38.3128 60.6702 38.2476 60.3922 38.119C60.1232 37.9919 59.8856 37.8062 59.6967 37.5755C59.494 37.322 59.3428 37.031 59.2517 36.7189C59.1443 36.3464 59.0931 35.9599 59.0999 35.5722C59.0865 35.0699 59.1802 34.5707 59.3748 34.1079C59.5349 33.7301 59.7982 33.4056 60.1341 33.1719C60.4737 32.9507 60.8715 32.8369 61.2761 32.8451C61.558 32.8439 61.8377 32.8957 62.1007 32.9978C62.3389 33.0872 62.5558 33.2261 62.737 33.4055C62.9103 33.5804 63.0404 33.7938 63.1166 34.0285H63.1759L63.2062 32.9429H63.9762V38.2183H63.2062L63.1759 37.122H63.1258C63.0006 37.4758 62.7632 37.7785 62.45 37.9831C62.1014 38.2083 61.6932 38.3222 61.2791 38.3099ZM61.5388 37.6258C61.8507 37.6363 62.1582 37.55 62.4196 37.3785C62.6562 37.2188 62.846 36.9985 62.9693 36.7402C63.0967 36.4768 63.1617 36.1873 63.1592 35.8943V35.25C63.1621 34.9521 63.0956 34.6577 62.9648 34.3904C62.8413 34.1334 62.6514 33.9146 62.415 33.7567C62.1525 33.6002 61.8526 33.5184 61.5474 33.52C61.2422 33.5216 60.9432 33.6066 60.6823 33.7659C60.4311 33.941 60.2363 34.1862 60.1219 34.4713C59.8627 35.1805 59.8627 35.9593 60.1219 36.6685C60.2339 36.9549 60.4272 37.2018 60.6777 37.3785C60.9327 37.5479 61.2333 37.6342 61.5388 37.6258Z" fill="white"/>
<path d="M65.4919 38.2181V32.9366H66.2619L66.2923 34.0329H66.353C66.4953 33.6648 66.7555 33.3548 67.0926 33.1519C67.4233 32.9559 67.8006 32.8535 68.1845 32.8557C68.4425 32.8521 68.6993 32.8929 68.9438 32.9763C69.1753 33.0549 69.3839 33.1897 69.5512 33.3687C69.7322 33.5699 69.867 33.8086 69.9461 34.068C70.047 34.4055 70.0942 34.757 70.0858 35.1094V38.2181H69.2748V35.2712C69.2854 34.9399 69.2365 34.6094 69.1306 34.2955C69.0503 34.0624 68.8954 33.8627 68.6902 33.7275C68.4596 33.5947 68.1964 33.5301 67.9308 33.5413C67.627 33.535 67.328 33.6189 67.0713 33.7825C66.8255 33.9422 66.628 34.1667 66.5003 34.4314C66.3625 34.722 66.2938 35.0409 66.2999 35.3628V38.2181H65.4919Z" fill="white"/>
<path d="M71.9173 32.0296C71.7825 32.0365 71.6501 31.9918 71.5468 31.9044C71.5001 31.8621 71.4633 31.8099 71.4391 31.7515C71.415 31.6931 71.404 31.6301 71.4071 31.5669C71.4037 31.5047 71.4146 31.4424 71.4388 31.385C71.463 31.3276 71.4999 31.2765 71.5468 31.2356C71.6514 31.151 71.7833 31.1081 71.9173 31.115C72.048 31.1093 72.1761 31.1522 72.2773 31.2356C72.3241 31.2765 72.3611 31.3276 72.3853 31.385C72.4095 31.4424 72.4203 31.5047 72.417 31.5669C72.4201 31.6301 72.4091 31.6931 72.3849 31.7515C72.3608 31.8099 72.324 31.8621 72.2773 31.9044C72.1774 31.9904 72.0488 32.0352 71.9173 32.0296ZM71.4967 38.2181V32.9366H72.3076V38.2181H71.4967Z" fill="white"/>
<path d="M73.8279 38.2181V32.9366H74.5993L74.6297 34.0329H74.6889C74.8318 33.6646 75.0926 33.3547 75.43 33.1519C75.7601 32.9557 76.137 32.8533 76.5204 32.8557C76.7785 32.8523 77.0352 32.8931 77.2797 32.9763C77.5084 33.0561 77.7143 33.1908 77.8796 33.3687C78.0611 33.5698 78.1964 33.8085 78.2759 34.068C78.3762 34.4057 78.4233 34.757 78.4156 35.1094V38.2181H77.6032V35.2712C77.6113 34.9394 77.5599 34.6089 77.4513 34.2955C77.3721 34.0623 77.2176 33.8624 77.0124 33.7275C76.7818 33.5947 76.5186 33.5301 76.2531 33.5412C75.9488 33.5352 75.6494 33.6191 75.3921 33.7825C75.1467 33.9422 74.9497 34.1667 74.8226 34.4314C74.6847 34.722 74.6161 35.0409 74.6221 35.3628V38.2181H73.8279Z" fill="white"/>
<path d="M81.9143 40.0048C81.5597 40.011 81.2071 39.9515 80.874 39.8292C80.5927 39.7251 80.3427 39.55 80.1481 39.3207C79.9642 39.0966 79.8478 38.8243 79.8125 38.5359H80.6037C80.6274 38.7081 80.7045 38.8683 80.8239 38.994C80.9505 39.1262 81.1067 39.2262 81.2795 39.2856C81.4893 39.3565 81.7097 39.3906 81.931 39.3864C82.2333 39.3966 82.5346 39.3446 82.8163 39.2337C83.0396 39.1425 83.2236 38.9748 83.3357 38.7604C83.4559 38.5045 83.5127 38.2232 83.5012 37.9404V36.9205H83.4617C83.3485 37.2562 83.1238 37.5424 82.8254 37.7312C82.5298 37.9078 82.1969 38.0116 81.8538 38.0342C81.5107 38.0567 81.1672 37.9974 80.8512 37.861C80.5931 37.7439 80.3655 37.5683 80.1861 37.348C79.9898 37.1061 79.8432 36.8274 79.7548 36.528C79.6505 36.1758 79.5993 35.8099 79.6029 35.4424C79.5958 34.9636 79.6905 34.4889 79.8808 34.0499C80.0367 33.6873 80.2922 33.3769 80.6174 33.1551C80.9423 32.9462 81.3221 32.8398 81.7077 32.8498C82.0993 32.8415 82.4849 32.9476 82.8178 33.1551C83.1217 33.3436 83.3518 33.6315 83.4693 33.9705H83.5194L83.5498 32.9551H84.3197V37.8061C84.3373 38.2426 84.2371 38.6757 84.0297 39.0596C83.839 39.3819 83.549 39.6328 83.2036 39.7742C82.7931 39.9358 82.3549 40.0142 81.9143 40.0048ZM81.975 37.3587C82.2688 37.3672 82.5588 37.2903 82.8102 37.1373C83.0368 36.9935 83.2176 36.7873 83.3311 36.5433C83.4485 36.2916 83.5082 36.0166 83.5058 35.7386V35.1279C83.5085 34.8508 83.4472 34.5769 83.3266 34.3278C83.2066 34.0776 83.0168 33.8678 82.7803 33.7242C82.5438 33.5805 82.2709 33.509 81.9947 33.5185C81.7018 33.5107 81.4131 33.5893 81.1641 33.7445C80.9232 33.9045 80.7367 34.1346 80.6295 34.4041C80.4979 34.7334 80.4349 35.0862 80.4442 35.4409C80.4355 35.7921 80.4985 36.1413 80.6295 36.467C80.7361 36.7351 80.9208 36.9645 81.1595 37.1251C81.4027 37.2811 81.6866 37.3608 81.975 37.3541V37.3587Z" fill="white"/>
<path d="M90.6315 38.3098C90.0901 38.3271 89.5516 38.2227 89.0552 38.0044C88.6653 37.8272 88.3389 37.5341 88.1197 37.1646C87.9087 36.7881 87.7983 36.3631 87.7993 35.9309H88.6801C88.6795 36.244 88.7573 36.5523 88.9064 36.8272C89.0527 37.0848 89.2766 37.289 89.5457 37.4105C89.8923 37.5571 90.2665 37.6259 90.6422 37.612C90.9775 37.6183 91.3118 37.5709 91.6323 37.4715C91.8882 37.3941 92.1162 37.2434 92.2884 37.0379C92.451 36.8254 92.5343 36.5622 92.5237 36.2943C92.5304 36.092 92.4926 35.8908 92.4129 35.7049C92.3355 35.5425 92.2145 35.405 92.0636 35.3079C91.8696 35.1856 91.6588 35.0925 91.4379 35.0316C91.1275 34.9419 90.8114 34.873 90.4918 34.8254C90.1217 34.7548 89.7557 34.6641 89.3954 34.5537C89.1141 34.4697 88.8477 34.3419 88.6057 34.175C88.4021 34.0336 88.2383 33.8416 88.1304 33.6177C88.017 33.3683 87.9619 33.0962 87.9694 32.8222C87.9592 32.443 88.0653 32.0699 88.2731 31.7533C88.495 31.4364 88.8044 31.1917 89.163 31.0494C89.6092 30.8737 90.0858 30.7896 90.5647 30.8021C91.0471 30.7886 91.5267 30.8798 91.971 31.0693C92.329 31.2256 92.6347 31.4821 92.8518 31.8083C93.0606 32.143 93.1697 32.5309 93.1661 32.926H92.3035C92.3009 32.6403 92.2177 32.3613 92.0636 32.1213C91.9128 31.9035 91.7015 31.7351 91.4562 31.6373C90.8671 31.4278 90.2249 31.4246 89.6338 31.6281C89.4062 31.7118 89.2066 31.8584 89.0583 32.0511C88.9205 32.2443 88.8501 32.4777 88.8578 32.7153C88.8441 32.9524 88.9134 33.1868 89.0537 33.3779C89.2278 33.5676 89.4515 33.7041 89.6991 33.7719C90.0969 33.8946 90.5029 33.9885 90.914 34.0528C91.2313 34.1041 91.5452 34.1744 91.854 34.2635C92.1377 34.3441 92.408 34.4666 92.6559 34.6269C92.8897 34.7825 93.0805 34.9953 93.2102 35.2453C93.3591 35.5573 93.43 35.9012 93.4167 36.247C93.4238 36.6306 93.3118 37.0069 93.0963 37.3234C92.858 37.6506 92.5312 37.9018 92.1547 38.0472C91.6694 38.2357 91.1516 38.325 90.6315 38.3098Z" fill="white"/>
<path d="M96.7862 38.3099C96.3349 38.3225 95.8891 38.2072 95.4999 37.9771C95.1396 37.7519 94.8553 37.4224 94.6844 37.0319C94.4896 36.5815 94.3942 36.0938 94.405 35.6027C94.3933 35.1037 94.4886 34.6079 94.6844 34.1491C94.8524 33.7582 95.1313 33.4257 95.4863 33.1933C95.8819 32.9675 96.33 32.8508 96.7849 32.8551C97.2399 32.8594 97.6856 32.9845 98.077 33.2177C98.4298 33.4638 98.6957 33.8161 98.8363 34.224C98.9993 34.702 99.0589 35.2096 99.011 35.7127H95.1947C95.1899 36.0873 95.2602 36.4591 95.4012 36.8059C95.5126 37.0759 95.7047 37.3043 95.951 37.4594C96.2041 37.6079 96.4932 37.6829 96.7862 37.6763C97.1134 37.6893 97.4362 37.5973 97.708 37.4136C97.9436 37.2453 98.1133 36.9996 98.1879 36.7189H98.9685C98.9166 37.0365 98.7802 37.3341 98.5736 37.5801C98.368 37.8204 98.1075 38.0069 97.8143 38.1236C97.4867 38.2516 97.1376 38.3149 96.7862 38.3099ZM95.2053 35.2561L95.1157 35.1355H98.3048L98.2152 35.276C98.2346 34.9275 98.1765 34.5791 98.0451 34.256C97.9395 34.0134 97.7583 33.8119 97.5288 33.6819C97.2907 33.5543 97.0241 33.4902 96.7543 33.4956C96.4738 33.4887 96.1967 33.5584 95.9525 33.6972C95.721 33.8364 95.5352 34.0408 95.4179 34.285C95.2791 34.5877 95.2066 34.9168 95.2053 35.25V35.2561Z" fill="white"/>
<path d="M100.139 38.2181V32.9366H100.861L100.911 33.9123H100.95C101.055 33.5895 101.27 33.3145 101.558 33.1366C101.846 32.9557 102.179 32.8613 102.519 32.8648C102.58 32.8648 102.636 32.8648 102.689 32.8648C102.74 32.8673 102.79 32.8724 102.841 32.8801V33.6542C102.794 33.6542 102.744 33.642 102.689 33.639C102.634 33.6359 102.58 33.639 102.519 33.639C102.242 33.632 101.968 33.6906 101.719 33.81C101.498 33.9183 101.312 34.0871 101.182 34.2971C101.045 34.5321 100.965 34.7962 100.947 35.0681V38.2181H100.139Z" fill="white"/>
<path d="M105.232 38.218L103.331 32.9365H104.203L105.223 36.0346L105.723 37.5752H105.764L106.264 36.0346L107.284 32.9365H108.156L106.254 38.218H105.232Z" fill="white"/>
<path d="M109.547 32.0296C109.412 32.0365 109.279 31.9918 109.176 31.9044C109.129 31.8621 109.093 31.8099 109.069 31.7515C109.044 31.6931 109.033 31.6301 109.036 31.5669C109.033 31.5047 109.044 31.4424 109.068 31.385C109.092 31.3276 109.129 31.2765 109.176 31.2356C109.281 31.151 109.413 31.1081 109.547 31.115C109.677 31.1096 109.805 31.1525 109.907 31.2356C109.954 31.2765 109.99 31.3276 110.015 31.385C110.039 31.4424 110.05 31.5047 110.046 31.5669C110.049 31.6301 110.039 31.6931 110.014 31.7515C109.99 31.8099 109.953 31.8621 109.907 31.9044C109.807 31.9902 109.678 32.0349 109.547 32.0296ZM109.126 38.2181V32.9366H109.937V38.2181H109.126Z" fill="white"/>
<path d="M113.66 38.3099C113.305 38.3147 112.953 38.2477 112.624 38.113C112.322 37.9886 112.051 37.8001 111.828 37.5602C111.603 37.3127 111.429 37.0219 111.318 36.7052C111.194 36.3444 111.133 35.9646 111.139 35.5829C111.134 35.2047 111.194 34.8285 111.318 34.4713C111.43 34.151 111.608 33.8577 111.839 33.6102C112.067 33.368 112.343 33.1774 112.65 33.0513C112.981 32.918 113.334 32.8516 113.69 32.8559C114.065 32.8491 114.438 32.9247 114.781 33.0773C115.089 33.2148 115.358 33.4292 115.561 33.7003C115.763 33.9738 115.888 34.2972 115.923 34.6362H115.131C115.089 34.411 114.989 34.2007 114.841 34.0255C114.703 33.8647 114.528 33.7405 114.331 33.6636C114.121 33.5811 113.896 33.5401 113.671 33.543C113.421 33.5409 113.173 33.5929 112.945 33.6957C112.737 33.7915 112.554 33.9348 112.41 34.114C112.258 34.3042 112.144 34.5226 112.075 34.7569C111.994 35.0278 111.955 35.3094 111.959 35.5921C111.949 35.9661 112.023 36.3377 112.175 36.6792C112.303 36.9635 112.509 37.2047 112.77 37.374C113.013 37.5151 113.285 37.5968 113.565 37.6124C113.845 37.6281 114.125 37.5772 114.381 37.464C114.581 37.3686 114.757 37.2293 114.896 37.0564C115.036 36.8768 115.128 36.6637 115.162 36.438H115.952C115.919 36.7942 115.792 37.135 115.583 37.4243C115.373 37.7073 115.096 37.9322 114.776 38.0779C114.426 38.2368 114.044 38.316 113.66 38.3099Z" fill="white"/>
<path d="M119.094 38.3099C118.643 38.3228 118.197 38.2074 117.808 37.9771C117.447 37.7519 117.163 37.4224 116.992 37.0319C116.797 36.5816 116.701 36.094 116.711 35.6027C116.7 35.1035 116.796 34.6078 116.992 34.1491C117.16 33.7586 117.438 33.4263 117.793 33.1933C118.189 32.9681 118.637 32.8518 119.092 32.8561C119.547 32.8604 119.993 32.9851 120.385 33.2177C120.737 33.4647 121.002 33.8167 121.144 34.224C121.306 34.7022 121.366 35.2096 121.319 35.7127H117.503C117.497 36.0873 117.566 36.4592 117.708 36.8059C117.82 37.0756 118.013 37.3039 118.259 37.4594C118.512 37.6081 118.801 37.6832 119.094 37.6763C119.421 37.6895 119.743 37.5975 120.014 37.4136C120.25 37.2458 120.42 36.9999 120.494 36.7189H121.276C121.224 37.0367 121.087 37.3343 120.88 37.5801C120.674 37.8204 120.414 38.0069 120.121 38.1236C119.794 38.2517 119.445 38.315 119.094 38.3099ZM117.513 35.2561L117.422 35.1355H120.611L120.52 35.276C120.54 34.9275 120.482 34.5789 120.35 34.256C120.245 34.0137 120.064 33.8122 119.835 33.6819C119.596 33.5543 119.329 33.4902 119.059 33.4956C118.779 33.4887 118.502 33.5583 118.259 33.6972C118.027 33.8363 117.841 34.0407 117.723 34.285C117.585 34.5879 117.514 34.917 117.513 35.25V35.2561Z" fill="white"/>
<path d="M124.328 38.3248C124.03 38.329 123.733 38.2884 123.447 38.2042C123.205 38.1336 122.978 38.0193 122.777 37.8667C122.595 37.7293 122.447 37.5503 122.347 37.3445C122.245 37.1326 122.19 36.9007 122.186 36.6651H122.987C122.993 36.8762 123.061 37.0807 123.182 37.2529C123.304 37.4151 123.471 37.5365 123.662 37.601C123.883 37.6772 124.115 37.7143 124.349 37.711C124.677 37.732 125.003 37.6516 125.284 37.4804C125.389 37.408 125.474 37.3098 125.531 37.1952C125.588 37.0806 125.615 36.9533 125.609 36.8254C125.62 36.6484 125.571 36.4729 125.47 36.3276C125.355 36.1963 125.205 36.1005 125.038 36.0513C124.791 35.9717 124.537 35.9145 124.279 35.8802C123.911 35.8347 123.549 35.7502 123.199 35.6283C122.942 35.5428 122.716 35.3836 122.548 35.1702C122.392 34.9416 122.315 34.6682 122.328 34.3915C122.322 34.1011 122.41 33.8167 122.578 33.5807C122.758 33.3391 123 33.1512 123.278 33.0372C123.611 32.9001 123.969 32.8336 124.329 32.8417C124.689 32.8321 125.047 32.8987 125.38 33.0372C125.657 33.1545 125.896 33.3462 126.071 33.5914C126.242 33.8416 126.332 34.1384 126.331 34.4419H125.541C125.538 34.2393 125.477 34.0417 125.366 33.8724C125.26 33.7304 125.113 33.6239 124.946 33.567C124.744 33.499 124.532 33.4665 124.32 33.4708C124.012 33.4526 123.707 33.534 123.448 33.7029C123.352 33.772 123.274 33.8638 123.221 33.9703C123.168 34.0767 123.142 34.1946 123.145 34.3136C123.137 34.4828 123.191 34.649 123.296 34.7809C123.422 34.9144 123.583 35.0088 123.761 35.0527C124.022 35.1271 124.288 35.1827 124.557 35.2191C124.903 35.2611 125.244 35.3421 125.573 35.4603C125.83 35.5478 126.055 35.7112 126.218 35.9291C126.377 36.1751 126.454 36.4654 126.438 36.7582C126.448 37.0628 126.357 37.362 126.179 37.6087C125.989 37.8526 125.734 38.0373 125.444 38.1416C125.086 38.2728 124.708 38.3349 124.328 38.3248Z" fill="white"/>
<path d="M43.5854 12.7051V10.1582H56.3555V12.7051H43.5854ZM48.4739 26.2944V12.3997H51.4018V26.2944H48.4739Z" fill="white"/>
<path d="M57.3052 26.2976V14.5207H59.7927L59.9248 16.4904H60.0129C60.2771 15.7371 60.7069 15.1946 61.3022 14.8627C61.9271 14.5233 62.6285 14.3519 63.3387 14.365H64.0205V16.9775C63.9324 16.9775 63.8261 16.9775 63.7016 16.9668C63.5771 16.9561 63.4404 16.9561 63.2946 16.9561C62.6894 16.9361 62.0874 17.053 61.533 17.2981C61.0854 17.5079 60.7139 17.8527 60.47 18.2845C60.2117 18.7662 60.0702 19.3024 60.0569 19.8496V26.2915L57.3052 26.2976Z" fill="white"/>
<path d="M69.167 26.4977C68.3783 26.52 67.5973 26.3369 66.8997 25.9663C66.2631 25.6068 65.7575 25.052 65.457 24.383C65.1259 23.6826 64.9609 22.8301 64.9619 21.8254V14.5208H67.7137V21.0956C67.6993 21.6714 67.7888 22.2451 67.9779 22.7889C68.1316 23.2219 68.4162 23.5956 68.7919 23.8577C69.2202 24.1264 69.7196 24.2579 70.2239 24.2348C70.7671 24.2472 71.3011 24.0927 71.7547 23.792C72.1882 23.4948 72.5339 23.0854 72.7555 22.6072C72.9979 22.0814 73.1184 21.5071 73.1078 20.9276V14.5146H75.8611V26.2916H73.2187L73.1078 24.0119H72.9757C72.7091 24.7723 72.1927 25.4185 71.5117 25.8442C70.8084 26.283 69.9946 26.5098 69.167 26.4977Z" fill="white"/>
<path d="M82.4793 26.4978C81.2898 26.4978 80.2804 26.2505 79.4512 25.7558C78.6223 25.2613 77.9591 24.5292 77.5469 23.6532C77.0882 22.6587 76.8622 21.5718 76.8863 20.4758C76.8863 19.2207 77.1065 18.132 77.5469 17.2097C77.954 16.3246 78.613 15.5807 79.4406 15.0721C80.2616 14.5713 81.2376 14.3204 82.3685 14.3193C83.6603 14.3193 84.7234 14.6033 85.5576 15.1713C86.3907 15.7452 87.0197 16.5717 87.3526 17.5304C87.7201 18.5341 87.8451 19.6848 87.7277 20.9827H79.5773C79.557 21.6331 79.681 22.2798 79.9402 22.876C80.155 23.3535 80.508 23.7547 80.9531 24.0273C81.4188 24.2942 81.9481 24.4283 82.4839 24.4151C83.1733 24.4151 83.7347 24.2675 84.168 23.9724C84.5865 23.6962 84.8947 23.2804 85.0382 22.7982H87.6259C87.525 23.5303 87.2196 24.2186 86.7451 24.7831C86.2556 25.3494 85.6357 25.7866 84.9395 26.0566C84.1548 26.3597 83.3198 26.5095 82.4793 26.4978ZM79.5773 19.5016L79.3358 19.213H85.3025L85.0382 19.5184C85.0676 18.7957 84.9719 18.2058 84.7512 17.7487C84.5535 17.3154 84.2216 16.9581 83.8051 16.7303C83.3627 16.5012 82.8705 16.3868 82.373 16.3974C81.8666 16.3853 81.3658 16.5075 80.9212 16.7517C80.5009 16.997 80.1634 17.3635 79.9523 17.8037C79.7017 18.334 79.5735 18.9145 79.5773 19.5016Z" fill="white"/>
<path d="M96.7447 26.4977C95.6296 26.5126 94.5213 26.3211 93.4752 25.9327C92.5299 25.5754 91.6707 25.0206 90.9542 24.305C90.2325 23.5694 89.6803 22.6833 89.3369 21.7093C88.9465 20.5893 88.7562 19.4086 88.775 18.2219C88.7557 17.0391 88.9459 15.8624 89.3369 14.7467C89.6807 13.7729 90.2328 12.8869 90.9542 12.151C91.6704 11.4354 92.5297 10.8811 93.4752 10.5248C94.5211 10.1357 95.6296 9.94419 96.7447 9.95989C97.9847 9.9378 99.2153 10.1792 100.356 10.6684C101.367 11.1038 102.255 11.786 102.938 12.6533C103.608 13.5222 104.028 14.5595 104.153 15.6521H101.172C101.052 15.0399 100.78 14.468 100.382 13.9894C99.9692 13.5055 99.4489 13.1262 98.8632 12.8824C98.1929 12.6061 97.4736 12.4705 96.7493 12.4838C95.8291 12.4579 94.919 12.6815 94.1145 13.1312C93.3562 13.5851 92.7534 14.2604 92.3863 15.0673C91.9742 15.9234 91.7687 16.9714 91.7697 18.2112C91.7564 19.0513 91.8753 19.8882 92.1221 20.6909C92.3258 21.3597 92.6667 21.9782 93.1228 22.5064C93.5516 22.99 94.0874 23.3655 94.687 23.6027C95.3434 23.8559 96.0417 23.9813 96.7447 23.9722C97.462 23.9841 98.1741 23.8485 98.8374 23.5737C99.4308 23.3261 99.9594 22.9442 100.382 22.4575C100.791 21.9794 101.065 21.3992 101.175 20.7779H104.146C104.032 21.8708 103.616 22.9098 102.947 23.7783C102.265 24.6515 101.378 25.3401 100.365 25.7815C99.2222 26.2746 97.9883 26.5186 96.7447 26.4977Z" fill="white"/>
<path d="M109.769 26.4977C109.094 26.5066 108.425 26.3664 107.81 26.0869C107.218 25.812 106.698 25.4027 106.291 24.8914C105.84 24.3213 105.507 23.6668 105.31 22.966C105.073 22.1347 104.958 21.2731 104.97 20.4084C104.97 19.1248 105.172 18.0255 105.577 17.1103C105.926 16.2637 106.511 15.537 107.263 15.0185C108.008 14.5311 108.883 14.2805 109.772 14.2993C110.346 14.2923 110.917 14.3895 111.457 14.5864C111.942 14.7656 112.385 15.0449 112.756 15.4063C113.112 15.7544 113.386 16.178 113.559 16.6462H113.711L113.82 14.5207H116.419V26.2976H113.82L113.711 24.1508H113.559C113.307 24.8629 112.817 25.465 112.173 25.8548C111.449 26.2969 110.615 26.5201 109.769 26.4977ZM110.737 24.2394C111.308 24.2595 111.871 24.1091 112.356 23.8073C112.787 23.5221 113.127 23.1189 113.336 22.6453C113.561 22.1366 113.674 21.585 113.667 21.0283V19.7671C113.675 19.2023 113.559 18.6426 113.325 18.1288C113.111 17.6578 112.768 17.2583 112.335 16.9775C111.876 16.6909 111.344 16.545 110.804 16.5576C110.214 16.5368 109.632 16.6965 109.134 17.0157C108.669 17.3409 108.312 17.7996 108.11 18.3318C107.86 18.996 107.74 19.7029 107.758 20.413C107.746 21.1065 107.864 21.7961 108.107 22.4453C108.302 22.9786 108.65 23.4412 109.108 23.7737C109.59 24.096 110.159 24.2589 110.737 24.2394Z" fill="white"/>
<path d="M117.374 26.2976V14.5207H119.862L119.994 16.4903H120.082C120.346 15.7371 120.775 15.1945 121.37 14.8627C121.995 14.5237 122.696 14.3523 123.406 14.3649H124.089V16.9774C124.001 16.9774 123.895 16.9774 123.769 16.9667C123.643 16.956 123.509 16.956 123.362 16.956C122.757 16.9363 122.155 17.0531 121.6 17.2981C121.153 17.5088 120.782 17.8533 120.537 18.2844C120.279 18.7662 120.138 19.3024 120.124 19.8495V26.2915L117.374 26.2976Z" fill="white"/>
<path d="M130.718 26.4978C129.529 26.4978 128.519 26.2505 127.69 25.7558C126.861 25.2613 126.198 24.5292 125.786 23.6532C125.327 22.6587 125.101 21.5717 125.125 20.4758C125.125 19.2207 125.345 18.132 125.786 17.2097C126.193 16.3246 126.852 15.5807 127.679 15.0721C128.501 14.5713 129.478 14.3204 130.609 14.3193C131.9 14.3193 132.963 14.6033 133.798 15.1713C134.631 15.7449 135.26 16.5716 135.591 17.5304C135.959 18.5341 136.084 19.6848 135.966 20.9827H127.811C127.791 21.6331 127.915 22.2798 128.174 22.876C128.389 23.3535 128.742 23.7547 129.187 24.0273C129.653 24.2942 130.182 24.4283 130.718 24.4151C131.408 24.4151 131.969 24.2675 132.402 23.9723C132.821 23.6962 133.129 23.2804 133.272 22.7982H135.871C135.77 23.5303 135.464 24.2186 134.99 24.7831C134.5 25.3488 133.88 25.7855 133.184 26.055C132.398 26.3595 131.561 26.5098 130.718 26.4978ZM127.811 19.5016L127.565 19.213H133.532L133.268 19.5184C133.296 18.7957 133.201 18.2058 132.981 17.7487C132.783 17.3154 132.451 16.9581 132.035 16.7303C131.593 16.5014 131.101 16.387 130.604 16.3974C130.097 16.3851 129.596 16.5072 129.151 16.7517C128.731 16.997 128.393 17.3635 128.182 17.8037C127.933 18.3344 127.806 18.9148 127.811 19.5016Z" fill="white"/>
<path fill-rule="evenodd" clip-rule="evenodd" d="M33.1319 16.2645C33.1228 16.2477 32.8525 12.9252 32.8525 12.916C32.6399 14.2551 31.668 16.8539 31.2367 17.8021C29.059 22.5492 25.7347 26.4367 21.5676 29.5485C20.2966 30.5034 18.9443 31.3439 17.5266 32.0602L17.1773 32.2358C16.7961 32.8846 16.258 33.426 15.6131 33.81C15.4992 35.0666 15.0178 36.3172 14.3982 37.415C14.0582 38.0461 13.6408 38.6319 13.156 39.1587C14.8628 39.7168 16.646 40.0023 18.4408 40.0046C23.0043 40.0428 26.8707 38.4777 30.0977 35.2361C33.3248 31.9945 34.8662 28.1254 34.8054 23.5539C34.7771 20.891 34.2193 18.4612 33.1319 16.2645ZM19.7681 37.6135C24.5047 36.6302 29.4872 33.4756 32.3271 25.093C31.0514 32.4801 27.2412 36.9157 19.7726 37.6135H19.7681Z" fill="white"/>
<path fill-rule="evenodd" clip-rule="evenodd" d="M29.671 11.896C29.4579 11.538 29.2204 11.1951 28.9603 10.8699L18.1492 0L6.60773 11.6044C3.3761 14.8536 1.83167 18.7502 1.88026 23.3401C1.88849 24.3531 1.9794 25.3637 2.15209 26.3618C2.98734 27.6062 5.56443 27.8811 6.93119 27.9773C6.40593 26.5471 6.15798 25.029 6.20074 23.505C6.26907 20.1458 7.49612 17.2447 9.85605 14.875L10.4286 14.2993L14.2084 10.4989L15.8546 8.84376L16.3314 8.36432L18.497 6.1885L27.0332 14.7635C27.6172 15.3467 28.1431 15.986 28.6034 16.6721C29.6406 14.933 30.3544 13.0763 29.671 11.896Z" fill="white"/>
<path d="M8.63947 28.9668C2.91428 28.7988 0.408553 27.846 0.87477 23.7524C-1.46542 28.072 1.16483 31.0037 5.60527 31.5014C3.95909 31.3671 2.44806 31.2312 0.267322 29.2508C1.48222 33.8315 4.16258 35.6943 8.85512 33.7047C7.26209 34.4376 5.79965 35.0942 2.55892 34.2254C3.22863 36.1187 6.08819 38.1694 8.85208 36.8578C7.8832 37.4823 7.04948 37.4685 5.59009 37.6869C7.55366 39.3237 10.0047 40.3742 12.0974 37.5647C11.411 38.6183 11.086 38.9145 9.39727 39.6688C10.9159 39.713 12.2386 39.4077 13.6099 36.9616C14.6912 35.0347 15.1741 32.9184 14.2174 31.2037C13.2136 29.4997 11.127 29.0385 8.63947 28.9668ZM7.20134 29.8753C9.07532 29.7989 10.0138 29.8005 11.6053 30.6708C10.2872 30.0631 8.59695 29.8249 7.20134 29.8753Z" fill="white"/>
<path d="M29.8213 1.67969C24.4971 6.47566 28.7112 8.42397 30.4546 11.4319C32.4683 14.9041 26.0673 22.2515 21.5889 25.5985C19.8518 26.9072 17.9735 28.0151 15.9897 28.9011C16.7324 29.2508 17.2532 29.8936 17.1196 31.2342C18.49 30.542 19.797 29.7296 21.0255 28.8065C25.2432 25.657 28.3716 21.8581 30.4106 17.4097C31.0815 15.9869 31.6017 14.4972 31.9626 12.9649C32.8434 9.32026 32.769 5.57632 30.9876 3.96697C33.5222 5.76107 32.93 10.6853 32.6004 12.1954C38.0143 7.23758 31.8229 3.78069 29.8213 1.67969Z" fill="white"/>
<path d="M13.1069 29.4966C13.7842 29.8829 14.3218 30.3501 14.6499 30.9563C15.0113 31.5365 15.1419 32.2465 15.1358 33.0283C18.1806 31.193 16.211 27.7636 13.1069 29.4966Z" fill="white"/>
</g>
<defs>
<clipPath id="clip0_361_2569">
<rect width="136" height="40" fill="white"/>
</clipPath>
</defs>
</svg>
